<?xml version="1.0" standalone="no"?>
<!DOCTYPE svg PUBLIC "-//W3C//DTD SVG 1.1//EN" "http://www.w3.org/Graphics/SVG/1.1/DTD/svg11.dtd">
<svg version="1.1" width="1200" height="566" onload="init(evt)" viewBox="0 0 1200 566" xmlns="http://www.w3.org/2000/svg" xmlns:xlink="http://www.w3.org/1999/xlink">
<!-- Flame graph stack visualization. See https://github.com/brendangregg/FlameGraph for latest version, and http://www.brendangregg.com/flamegraphs.html for examples. -->
<!-- NOTES:  -->
<defs>
	<linearGradient id="background" y1="0" y2="1" x1="0" x2="0" >
		<stop stop-color="#eeeeee" offset="5%" />
		<stop stop-color="#eeeeb0" offset="95%" />
	</linearGradient>
</defs>
<style type="text/css">
	text { font-family:Verdana; font-size:12px; fill:rgb(0,0,0); }
	#search, #ignorecase { opacity:0.1; cursor:pointer; }
	#search:hover, #search.show, #ignorecase:hover, #ignorecase.show { opacity:1; }
	#subtitle { text-anchor:middle; font-color:rgb(160,160,160); }
	#title { text-anchor:middle; font-size:17px}
	#unzoom { cursor:pointer; }
	#frames > *:hover { stroke:black; stroke-width:0.5; cursor:pointer; }
	.hide { display:none; }
	.parent { opacity:0.5; }
</style>
<script type="text/ecmascript">
<![CDATA[
	"use strict";
	var details, searchbtn, unzoombtn, matchedtxt, svg, searching, currentSearchTerm, ignorecase, ignorecaseBtn;
	function init(evt) {
		details = document.getElementById("details").firstChild;
		searchbtn = document.getElementById("search");
		ignorecaseBtn = document.getElementById("ignorecase");
		unzoombtn = document.getElementById("unzoom");
		matchedtxt = document.getElementById("matched");
		svg = document.getElementsByTagName("svg")[0];
		searching = 0;
		currentSearchTerm = null;

		// use GET parameters to restore a flamegraphs state.
		var params = get_params();
		if (params.x && params.y)
			zoom(find_group(document.querySelector('[x="' + params.x + '"][y="' + params.y + '"]')));
                if (params.s) search(params.s);
	}

	// event listeners
	window.addEventListener("click", function(e) {
		var target = find_group(e.target);
		if (target) {
			if (target.nodeName == "a") {
				if (e.ctrlKey === false) return;
				e.preventDefault();
			}
			if (target.classList.contains("parent")) unzoom(true);
			zoom(target);
			if (!document.querySelector('.parent')) {
				// we have basically done a clearzoom so clear the url
				var params = get_params();
				if (params.x) delete params.x;
				if (params.y) delete params.y;
				history.replaceState(null, null, parse_params(params));
				unzoombtn.classList.add("hide");
				return;
			}

			// set parameters for zoom state
			var el = target.querySelector("rect");
			if (el && el.attributes && el.attributes.y && el.attributes._orig_x) {
				var params = get_params()
				params.x = el.attributes._orig_x.value;
				params.y = el.attributes.y.value;
				history.replaceState(null, null, parse_params(params));
			}
		}
		else if (e.target.id == "unzoom") clearzoom();
		else if (e.target.id == "search") search_prompt();
		else if (e.target.id == "ignorecase") toggle_ignorecase();
	}, false)

	// mouse-over for info
	// show
	window.addEventListener("mouseover", function(e) {
		var target = find_group(e.target);
		if (target) details.nodeValue = "Function: " + g_to_text(target);
	}, false)

	// clear
	window.addEventListener("mouseout", function(e) {
		var target = find_group(e.target);
		if (target) details.nodeValue = ' ';
	}, false)

	// ctrl-F for search
	// ctrl-I to toggle case-sensitive search
	window.addEventListener("keydown",function (e) {
		if (e.keyCode === 114 || (e.ctrlKey && e.keyCode === 70)) {
			e.preventDefault();
			search_prompt();
		}
		else if (e.ctrlKey && e.keyCode === 73) {
			e.preventDefault();
			toggle_ignorecase();
		}
	}, false)

	// functions
	function get_params() {
		var params = {};
		var paramsarr = window.location.search.substr(1).split('&');
		for (var i = 0; i < paramsarr.length; ++i) {
			var tmp = paramsarr[i].split("=");
			if (!tmp[0] || !tmp[1]) continue;
			params[tmp[0]]  = decodeURIComponent(tmp[1]);
		}
		return params;
	}
	function parse_params(params) {
		var uri = "?";
		for (var key in params) {
			uri += key + '=' + encodeURIComponent(params[key]) + '&';
		}
		if (uri.slice(-1) == "&")
			uri = uri.substring(0, uri.length - 1);
		if (uri == '?')
			uri = window.location.href.split('?')[0];
		return uri;
	}
	function find_child(node, selector) {
		var children = node.querySelectorAll(selector);
		if (children.length) return children[0];
	}
	function find_group(node) {
		var parent = node.parentElement;
		if (!parent) return;
		if (parent.id == "frames") return node;
		return find_group(parent);
	}
	function orig_save(e, attr, val) {
		if (e.attributes["_orig_" + attr] != undefined) return;
		if (e.attributes[attr] == undefined) return;
		if (val == undefined) val = e.attributes[attr].value;
		e.setAttribute("_orig_" + attr, val);
	}
	function orig_load(e, attr) {
		if (e.attributes["_orig_"+attr] == undefined) return;
		e.attributes[attr].value = e.attributes["_orig_" + attr].value;
		e.removeAttribute("_orig_"+attr);
	}
	function g_to_text(e) {
		var text = find_child(e, "title").firstChild.nodeValue;
		return (text)
	}
	function g_to_func(e) {
		var func = g_to_text(e);
		// if there's any manipulation we want to do to the function
		// name before it's searched, do it here before returning.
		return (func);
	}
	function update_text(e) {
		var r = find_child(e, "rect");
		var t = find_child(e, "text");
		var w = parseFloat(r.attributes.width.value) -3;
		var txt = find_child(e, "title").textContent.replace(/\([^(]*\)$/,"");
		t.attributes.x.value = parseFloat(r.attributes.x.value) + 3;

		// Smaller than this size won't fit anything
		if (w < 2 * 12 * 0.59) {
			t.textContent = "";
			return;
		}

		t.textContent = txt;
		var sl = t.getSubStringLength(0, txt.length);
		// check if only whitespace or if we can fit the entire string into width w
		if (/^ *$/.test(txt) || sl < w)
			return;

		// this isn't perfect, but gives a good starting point
		// and avoids calling getSubStringLength too often
		var start = Math.floor((w/sl) * txt.length);
		for (var x = start; x > 0; x = x-2) {
			if (t.getSubStringLength(0, x + 2) <= w) {
				t.textContent = txt.substring(0, x) + "..";
				return;
			}
		}
		t.textContent = "";
	}

	// zoom
	function zoom_reset(e) {
		if (e.attributes != undefined) {
			orig_load(e, "x");
			orig_load(e, "width");
		}
		if (e.childNodes == undefined) return;
		for (var i = 0, c = e.childNodes; i < c.length; i++) {
			zoom_reset(c[i]);
		}
	}
	function zoom_child(e, x, ratio) {
		if (e.attributes != undefined) {
			if (e.attributes.x != undefined) {
				orig_save(e, "x");
				e.attributes.x.value = (parseFloat(e.attributes.x.value) - x - 10) * ratio + 10;
				if (e.tagName == "text")
					e.attributes.x.value = find_child(e.parentNode, "rect[x]").attributes.x.value + 3;
			}
			if (e.attributes.width != undefined) {
				orig_save(e, "width");
				e.attributes.width.value = parseFloat(e.attributes.width.value) * ratio;
			}
		}

		if (e.childNodes == undefined) return;
		for (var i = 0, c = e.childNodes; i < c.length; i++) {
			zoom_child(c[i], x - 10, ratio);
		}
	}
	function zoom_parent(e) {
		if (e.attributes) {
			if (e.attributes.x != undefined) {
				orig_save(e, "x");
				e.attributes.x.value = 10;
			}
			if (e.attributes.width != undefined) {
				orig_save(e, "width");
				e.attributes.width.value = parseInt(svg.width.baseVal.value) - (10 * 2);
			}
		}
		if (e.childNodes == undefined) return;
		for (var i = 0, c = e.childNodes; i < c.length; i++) {
			zoom_parent(c[i]);
		}
	}
	function zoom(node) {
		var attr = find_child(node, "rect").attributes;
		var width = parseFloat(attr.width.value);
		var xmin = parseFloat(attr.x.value);
		var xmax = parseFloat(xmin + width);
		var ymin = parseFloat(attr.y.value);
		var ratio = (svg.width.baseVal.value - 2 * 10) / width;

		// XXX: Workaround for JavaScript float issues (fix me)
		var fudge = 0.0001;

		unzoombtn.classList.remove("hide");

		var el = document.getElementById("frames").children;
		for (var i = 0; i < el.length; i++) {
			var e = el[i];
			var a = find_child(e, "rect").attributes;
			var ex = parseFloat(a.x.value);
			var ew = parseFloat(a.width.value);
			var upstack;
			// Is it an ancestor
			if (0 == 0) {
				upstack = parseFloat(a.y.value) > ymin;
			} else {
				upstack = parseFloat(a.y.value) < ymin;
			}
			if (upstack) {
				// Direct ancestor
				if (ex <= xmin && (ex+ew+fudge) >= xmax) {
					e.classList.add("parent");
					zoom_parent(e);
					update_text(e);
				}
				// not in current path
				else
					e.classList.add("hide");
			}
			// Children maybe
			else {
				// no common path
				if (ex < xmin || ex + fudge >= xmax) {
					e.classList.add("hide");
				}
				else {
					zoom_child(e, xmin, ratio);
					update_text(e);
				}
			}
		}
		search();
	}
	function unzoom(dont_update_text) {
		unzoombtn.classList.add("hide");
		var el = document.getElementById("frames").children;
		for(var i = 0; i < el.length; i++) {
			el[i].classList.remove("parent");
			el[i].classList.remove("hide");
			zoom_reset(el[i]);
			if(!dont_update_text) update_text(el[i]);
		}
		search();
	}
	function clearzoom() {
		unzoom();

		// remove zoom state
		var params = get_params();
		if (params.x) delete params.x;
		if (params.y) delete params.y;
		history.replaceState(null, null, parse_params(params));
	}

	// search
	function toggle_ignorecase() {
		ignorecase = !ignorecase;
		if (ignorecase) {
			ignorecaseBtn.classList.add("show");
		} else {
			ignorecaseBtn.classList.remove("show");
		}
		reset_search();
		search();
	}
	function reset_search() {
		var el = document.querySelectorAll("#frames rect");
		for (var i = 0; i < el.length; i++) {
			orig_load(el[i], "fill")
		}
		var params = get_params();
		delete params.s;
		history.replaceState(null, null, parse_params(params));
	}
	function search_prompt() {
		if (!searching) {
			var term = prompt("Enter a search term (regexp " +
			    "allowed, eg: ^ext4_)"
			    + (ignorecase ? ", ignoring case" : "")
			    + "\nPress Ctrl-i to toggle case sensitivity", "");
			if (term != null) search(term);
		} else {
			reset_search();
			searching = 0;
			currentSearchTerm = null;
			searchbtn.classList.remove("show");
			searchbtn.firstChild.nodeValue = "Search"
			matchedtxt.classList.add("hide");
			matchedtxt.firstChild.nodeValue = ""
		}
	}
	function search(term) {
		if (term) currentSearchTerm = term;

		var re = new RegExp(currentSearchTerm, ignorecase ? 'i' : '');
		var el = document.getElementById("frames").children;
		var matches = new Object();
		var maxwidth = 0;
		for (var i = 0; i < el.length; i++) {
			var e = el[i];
			var func = g_to_func(e);
			var rect = find_child(e, "rect");
			if (func == null || rect == null)
				continue;

			// Save max width. Only works as we have a root frame
			var w = parseFloat(rect.attributes.width.value);
			if (w > maxwidth)
				maxwidth = w;

			if (func.match(re)) {
				// highlight
				var x = parseFloat(rect.attributes.x.value);
				orig_save(rect, "fill");
				rect.attributes.fill.value = "rgb(230,0,230)";

				// remember matches
				if (matches[x] == undefined) {
					matches[x] = w;
				} else {
					if (w > matches[x]) {
						// overwrite with parent
						matches[x] = w;
					}
				}
				searching = 1;
			}
		}
		if (!searching)
			return;
		var params = get_params();
		params.s = currentSearchTerm;
		history.replaceState(null, null, parse_params(params));

		searchbtn.classList.add("show");
		searchbtn.firstChild.nodeValue = "Reset Search";

		// calculate percent matched, excluding vertical overlap
		var count = 0;
		var lastx = -1;
		var lastw = 0;
		var keys = Array();
		for (k in matches) {
			if (matches.hasOwnProperty(k))
				keys.push(k);
		}
		// sort the matched frames by their x location
		// ascending, then width descending
		keys.sort(function(a, b){
			return a - b;
		});
		// Step through frames saving only the biggest bottom-up frames
		// thanks to the sort order. This relies on the tree property
		// where children are always smaller than their parents.
		var fudge = 0.0001;	// JavaScript floating point
		for (var k in keys) {
			var x = parseFloat(keys[k]);
			var w = matches[keys[k]];
			if (x >= lastx + lastw - fudge) {
				count += w;
				lastx = x;
				lastw = w;
			}
		}
		// display matched percent
		matchedtxt.classList.remove("hide");
		var pct = 100 * count / maxwidth;
		if (pct != 100) pct = pct.toFixed(1)
		matchedtxt.firstChild.nodeValue = "Matched: " + pct + "%";
	}
]]>
</script>
<rect x="0.0" y="0" width="1200.0" height="566.0" fill="url(#background)"  />
<text id="title" x="600.00" y="24" >Flame Graph</text>
<text id="details" x="10.00" y="549" > </text>
<text id="unzoom" x="10.00" y="24" class="hide">Reset Zoom</text>
<text id="search" x="1090.00" y="24" >Search</text>
<text id="ignorecase" x="1174.00" y="24" >ic</text>
<text id="matched" x="1090.00" y="549" > </text>
<g id="frames">
<g >
<title>xcb_get_setup&lt;000000000000e080&gt; (1 samples, 0.65%)</title><rect x="1182.3" y="293" width="7.7" height="15.0" fill="rgb(208,24,48)" rx="2" ry="2" />
<text  x="1185.29" y="303.5" ></text>
</g>
<g >
<title>nouveau_pushbuf_kick&lt;0000000000005450&gt; (1 samples, 0.65%)</title><rect x="110.3" y="341" width="7.7" height="15.0" fill="rgb(207,140,37)" rx="2" ry="2" />
<text  x="113.26" y="351.5" ></text>
</g>
<g >
<title>nouveau_drm_screen_create (1 samples, 0.65%)</title><rect x="48.6" y="213" width="7.7" height="15.0" fill="rgb(235,17,25)" rx="2" ry="2" />
<text  x="51.56" y="223.5" ></text>
</g>
<g >
<title>0x00007f9428fe61e4 (2 samples, 1.31%)</title><rect x="10.0" y="373" width="15.4" height="15.0" fill="rgb(228,14,36)" rx="2" ry="2" />
<text  x="13.00" y="383.5" ></text>
</g>
<g >
<title>SDL_DYNAPI_entry (4 samples, 2.61%)</title><rect x="48.6" y="341" width="30.8" height="15.0" fill="rgb(206,38,46)" rx="2" ry="2" />
<text  x="51.56" y="351.5" >SD..</text>
</g>
<g >
<title>SDL_CreateThread&lt;0000000000042220&gt; (5 samples, 3.27%)</title><rect x="10.0" y="421" width="38.6" height="15.0" fill="rgb(247,155,7)" rx="2" ry="2" />
<text  x="13.00" y="431.5" >SDL..</text>
</g>
<g >
<title>0x00007f9428ffa3e3 (1 samples, 0.65%)</title><rect x="10.0" y="325" width="7.7" height="15.0" fill="rgb(214,120,11)" rx="2" ry="2" />
<text  x="13.00" y="335.5" ></text>
</g>
<g >
<title>_dl_rtld_di_serinfo@@GLIBC_PRIVATE&lt;0000000000008e00&gt; (1 samples, 0.65%)</title><rect x="64.0" y="37" width="7.7" height="15.0" fill="rgb(208,209,4)" rx="2" ry="2" />
<text  x="66.99" y="47.5" ></text>
</g>
<g >
<title>Game_Loop::shutDown()&lt;000000000007a000&gt; (1 samples, 0.65%)</title><rect x="94.8" y="437" width="7.7" height="15.0" fill="rgb(238,63,50)" rx="2" ry="2" />
<text  x="97.84" y="447.5" ></text>
</g>
<g >
<title>__driDriverGetExtensions_swrast&lt;00000000000a94b0&gt; (1 samples, 0.65%)</title><rect x="48.6" y="229" width="7.7" height="15.0" fill="rgb(231,175,43)" rx="2" ry="2" />
<text  x="51.56" y="239.5" ></text>
</g>
<g >
<title>SDL_DYNAPI_entry (6 samples, 3.92%)</title><rect x="48.6" y="421" width="46.2" height="15.0" fill="rgb(239,170,47)" rx="2" ry="2" />
<text  x="51.56" y="431.5" >SDL_..</text>
</g>
<g >
<title>Game_Loop::update()&lt;0000000000079f40&gt; (141 samples, 92.16%)</title><rect x="102.5" y="437" width="1087.5" height="15.0" fill="rgb(247,123,4)" rx="2" ry="2" />
<text  x="105.55" y="447.5" >Game_Loop::update()&lt;0000000000079f40&gt;</text>
</g>
<g >
<title>__driDriverGetExtensions_d3d12&lt;00000000000a9570&gt; (1 samples, 0.65%)</title><rect x="56.3" y="261" width="7.7" height="15.0" fill="rgb(247,195,49)" rx="2" ry="2" />
<text  x="59.27" y="271.5" ></text>
</g>
<g >
<title>_dl_find_dso_for_object@@GLIBC_PRIVATE&lt;000000000000b770&gt; (1 samples, 0.65%)</title><rect x="64.0" y="85" width="7.7" height="15.0" fill="rgb(244,227,3)" rx="2" ry="2" />
<text  x="66.99" y="95.5" ></text>
</g>
<g >
<title>_start&lt;00000000000795e0&gt; (153 samples, 100.00%)</title><rect x="10.0" y="501" width="1180.0" height="15.0" fill="rgb(231,198,49)" rx="2" ry="2" />
<text  x="13.00" y="511.5" >_start&lt;00000000000795e0&gt;</text>
</g>
<g >
<title>__driDriverGetExtensions_d3d12&lt;00000000000a9570&gt; (1 samples, 0.65%)</title><rect x="87.1" y="341" width="7.7" height="15.0" fill="rgb(235,77,13)" rx="2" ry="2" />
<text  x="90.12" y="351.5" ></text>
</g>
<g >
<title>_dl_catch_exception@@GLIBC_PRIVATE&lt;000000000014fdc0&gt; (1 samples, 0.65%)</title><rect x="64.0" y="181" width="7.7" height="15.0" fill="rgb(228,160,20)" rx="2" ry="2" />
<text  x="66.99" y="191.5" ></text>
</g>
<g >
<title>__libc_start_main@GLIBC_2.2.5 (153 samples, 100.00%)</title><rect x="10.0" y="485" width="1180.0" height="15.0" fill="rgb(243,163,14)" rx="2" ry="2" />
<text  x="13.00" y="495.5" >__libc_start_main@GLIBC_2.2.5</text>
</g>
<g >
<title>__driDriverGetExtensions_d3d12&lt;00000000000a9570&gt; (1 samples, 0.65%)</title><rect x="56.3" y="245" width="7.7" height="15.0" fill="rgb(241,3,5)" rx="2" ry="2" />
<text  x="59.27" y="255.5" ></text>
</g>
<g >
<title>0x00007f9428ff983f (1 samples, 0.65%)</title><rect x="10.0" y="293" width="7.7" height="15.0" fill="rgb(237,12,3)" rx="2" ry="2" />
<text  x="13.00" y="303.5" ></text>
</g>
<g >
<title>0x00007f9428ff98a3 (1 samples, 0.65%)</title><rect x="33.1" y="261" width="7.7" height="15.0" fill="rgb(205,189,14)" rx="2" ry="2" />
<text  x="36.14" y="271.5" ></text>
</g>
<g >
<title>dlmopen@@GLIBC_2.34 (1 samples, 0.65%)</title><rect x="64.0" y="165" width="7.7" height="15.0" fill="rgb(223,47,10)" rx="2" ry="2" />
<text  x="66.99" y="175.5" ></text>
</g>
<g >
<title>SDL_CreateThread&lt;0000000000042220&gt; (1 samples, 0.65%)</title><rect x="94.8" y="389" width="7.7" height="15.0" fill="rgb(225,71,6)" rx="2" ry="2" />
<text  x="97.84" y="399.5" ></text>
</g>
<g >
<title>glIsTextureEXT&lt;000000000001a370&gt; (2 samples, 1.31%)</title><rect x="56.3" y="277" width="15.4" height="15.0" fill="rgb(220,128,29)" rx="2" ry="2" />
<text  x="59.27" y="287.5" ></text>
</g>
<g >
<title>nouveau_pushbuf_kick&lt;0000000000005450&gt; (2 samples, 1.31%)</title><rect x="118.0" y="293" width="15.4" height="15.0" fill="rgb(213,72,14)" rx="2" ry="2" />
<text  x="120.97" y="303.5" ></text>
</g>
<g >
<title>glXQueryContext&lt;000000000001a880&gt; (1 samples, 0.65%)</title><rect x="79.4" y="341" width="7.7" height="15.0" fill="rgb(236,65,24)" rx="2" ry="2" />
<text  x="82.41" y="351.5" ></text>
</g>
<g >
<title>0x00007f9428fdfbda (1 samples, 0.65%)</title><rect x="17.7" y="341" width="7.7" height="15.0" fill="rgb(239,202,45)" rx="2" ry="2" />
<text  x="20.71" y="351.5" ></text>
</g>
<g >
<title>drmCommandWriteRead&lt;000000000000a8c0&gt; (2 samples, 1.31%)</title><rect x="118.0" y="245" width="15.4" height="15.0" fill="rgb(230,185,40)" rx="2" ry="2" />
<text  x="120.97" y="255.5" ></text>
</g>
<g >
<title>pa_idxset_isempty&lt;0000000000028160&gt; (1 samples, 0.65%)</title><rect x="94.8" y="277" width="7.7" height="15.0" fill="rgb(208,20,5)" rx="2" ry="2" />
<text  x="97.84" y="287.5" ></text>
</g>
<g >
<title>all (153 samples, 100%)</title><rect x="10.0" y="517" width="1180.0" height="15.0" fill="rgb(230,23,29)" rx="2" ry="2" />
<text  x="13.00" y="527.5" ></text>
</g>
<g >
<title>SDL_DYNAPI_entry (1 samples, 0.65%)</title><rect x="94.8" y="357" width="7.7" height="15.0" fill="rgb(241,47,40)" rx="2" ry="2" />
<text  x="97.84" y="367.5" ></text>
</g>
<g >
<title>0x00007f9428fe61e4 (1 samples, 0.65%)</title><rect x="33.1" y="341" width="7.7" height="15.0" fill="rgb(239,8,33)" rx="2" ry="2" />
<text  x="36.14" y="351.5" ></text>
</g>
<g >
<title>__nss_database_lookup@GLIBC_2.2.5&lt;0000000000152e00&gt; (1 samples, 0.65%)</title><rect x="79.4" y="245" width="7.7" height="15.0" fill="rgb(236,156,34)" rx="2" ry="2" />
<text  x="82.41" y="255.5" ></text>
</g>
<g >
<title>dlopen@@GLIBC_2.34 (1 samples, 0.65%)</title><rect x="64.0" y="229" width="7.7" height="15.0" fill="rgb(239,96,53)" rx="2" ry="2" />
<text  x="66.99" y="239.5" ></text>
</g>
<g >
<title>nouveau_drm_screen_create (1 samples, 0.65%)</title><rect x="48.6" y="197" width="7.7" height="15.0" fill="rgb(217,153,29)" rx="2" ry="2" />
<text  x="51.56" y="207.5" ></text>
</g>
<g >
<title>openat64 (1 samples, 0.65%)</title><rect x="25.4" y="277" width="7.7" height="15.0" fill="rgb(220,65,5)" rx="2" ry="2" />
<text  x="28.42" y="287.5" ></text>
</g>
<g >
<title>nouveau_drm_screen_create (133 samples, 86.93%)</title><rect x="133.4" y="309" width="1025.8" height="15.0" fill="rgb(229,213,22)" rx="2" ry="2" />
<text  x="136.40" y="319.5" >nouveau_drm_screen_create</text>
</g>
<g >
<title>dlerror@GLIBC_2.2.5 (1 samples, 0.65%)</title><rect x="64.0" y="213" width="7.7" height="15.0" fill="rgb(207,166,5)" rx="2" ry="2" />
<text  x="66.99" y="223.5" ></text>
</g>
<g >
<title>glLabelObjectEXT (1 samples, 0.65%)</title><rect x="71.7" y="277" width="7.7" height="15.0" fill="rgb(219,80,6)" rx="2" ry="2" />
<text  x="74.70" y="287.5" ></text>
</g>
<g >
<title>drmIoctl&lt;00000000000072f0&gt; (1 samples, 0.65%)</title><rect x="48.6" y="133" width="7.7" height="15.0" fill="rgb(226,124,47)" rx="2" ry="2" />
<text  x="51.56" y="143.5" ></text>
</g>
<g >
<title>0x00007f9428fdfb76 (1 samples, 0.65%)</title><rect x="10.0" y="341" width="7.7" height="15.0" fill="rgb(217,100,6)" rx="2" ry="2" />
<text  x="13.00" y="351.5" ></text>
</g>
<g >
<title>openat64 (1 samples, 0.65%)</title><rect x="10.0" y="277" width="7.7" height="15.0" fill="rgb(243,165,3)" rx="2" ry="2" />
<text  x="13.00" y="287.5" ></text>
</g>
<g >
<title>glLabelObjectEXT (1 samples, 0.65%)</title><rect x="64.0" y="245" width="7.7" height="15.0" fill="rgb(229,66,46)" rx="2" ry="2" />
<text  x="66.99" y="255.5" ></text>
</g>
<g >
<title>tc_deletearray (1 samples, 0.65%)</title><rect x="87.1" y="325" width="7.7" height="15.0" fill="rgb(207,114,27)" rx="2" ry="2" />
<text  x="90.12" y="335.5" ></text>
</g>
<g >
<title>nouveau_drm_screen_create (1 samples, 0.65%)</title><rect x="1151.4" y="277" width="7.8" height="15.0" fill="rgb(243,74,15)" rx="2" ry="2" />
<text  x="1154.44" y="287.5" ></text>
</g>
<g >
<title>nouveau_pushbuf_data&lt;0000000000004a40&gt; (1 samples, 0.65%)</title><rect x="110.3" y="325" width="7.7" height="15.0" fill="rgb(221,219,2)" rx="2" ry="2" />
<text  x="113.26" y="335.5" ></text>
</g>
<g >
<title>glAreTexturesResidentEXT&lt;000000000003f600&gt; (4 samples, 2.61%)</title><rect x="48.6" y="293" width="30.8" height="15.0" fill="rgb(216,51,0)" rx="2" ry="2" />
<text  x="51.56" y="303.5" >gl..</text>
</g>
<g >
<title>__driDriverGetExtensions_d3d12&lt;00000000000a9570&gt; (135 samples, 88.24%)</title><rect x="118.0" y="341" width="1041.2" height="15.0" fill="rgb(254,0,0)" rx="2" ry="2" />
<text  x="120.97" y="351.5" >__driDriverGetExtensions_d3d12&lt;00000000000a9570&gt;</text>
</g>
<g >
<title>_glapi_set_warning_func&lt;000000000001a560&gt; (1 samples, 0.65%)</title><rect x="79.4" y="261" width="7.7" height="15.0" fill="rgb(240,52,43)" rx="2" ry="2" />
<text  x="82.41" y="271.5" ></text>
</g>
<g >
<title>_dl_mcount@@GLIBC_2.2.5&lt;000000000000dbe0&gt; (1 samples, 0.65%)</title><rect x="64.0" y="69" width="7.7" height="15.0" fill="rgb(222,58,17)" rx="2" ry="2" />
<text  x="66.99" y="79.5" ></text>
</g>
<g >
<title>_XimOpenIM&lt;0000000000069a40&gt; (1 samples, 0.65%)</title><rect x="40.8" y="357" width="7.8" height="15.0" fill="rgb(245,201,53)" rx="2" ry="2" />
<text  x="43.85" y="367.5" ></text>
</g>
<g >
<title>SDL_DYNAPI_entry (5 samples, 3.27%)</title><rect x="48.6" y="373" width="38.5" height="15.0" fill="rgb(218,223,5)" rx="2" ry="2" />
<text  x="51.56" y="383.5" >SDL..</text>
</g>
<g >
<title>SDL_DYNAPI_entry (3 samples, 1.96%)</title><rect x="25.4" y="373" width="23.2" height="15.0" fill="rgb(241,106,50)" rx="2" ry="2" />
<text  x="28.42" y="383.5" >S..</text>
</g>
<g >
<title>glLabelObjectEXT (3 samples, 1.96%)</title><rect x="1159.2" y="325" width="23.1" height="15.0" fill="rgb(216,92,6)" rx="2" ry="2" />
<text  x="1162.15" y="335.5" >g..</text>
</g>
<g >
<title>SDL_DYNAPI_entry (141 samples, 92.16%)</title><rect x="102.5" y="421" width="1087.5" height="15.0" fill="rgb(227,128,34)" rx="2" ry="2" />
<text  x="105.55" y="431.5" >SDL_DYNAPI_entry</text>
</g>
<g >
<title>pa_format_info_set_prop_string_array@@PULSE_0&lt;0000000000011070&gt; (1 samples, 0.65%)</title><rect x="94.8" y="325" width="7.7" height="15.0" fill="rgb(246,0,45)" rx="2" ry="2" />
<text  x="97.84" y="335.5" ></text>
</g>
<g >
<title>nouveau_drm_screen_create (133 samples, 86.93%)</title><rect x="133.4" y="325" width="1025.8" height="15.0" fill="rgb(228,158,42)" rx="2" ry="2" />
<text  x="136.40" y="335.5" >nouveau_drm_screen_create</text>
</g>
<g >
<title>MesaGLInteropGLXExportObject&lt;0000000000033310&gt; (4 samples, 2.61%)</title><rect x="48.6" y="309" width="30.8" height="15.0" fill="rgb(213,90,31)" rx="2" ry="2" />
<text  x="51.56" y="319.5" >Me..</text>
</g>
<g >
<title>glLabelObjectEXT (1 samples, 0.65%)</title><rect x="71.7" y="245" width="7.7" height="15.0" fill="rgb(210,53,3)" rx="2" ry="2" />
<text  x="74.70" y="255.5" ></text>
</g>
<g >
<title>__sched_yield@@GLIBC_2.2.5&lt;00000000000ecb20&gt; (128 samples, 83.66%)</title><rect x="141.1" y="293" width="987.2" height="15.0" fill="rgb(226,8,17)" rx="2" ry="2" />
<text  x="144.11" y="303.5" >__sched_yield@@GLIBC_2.2.5&lt;00000000000ecb20&gt;</text>
</g>
<g >
<title>_dl_catch_exception@@GLIBC_PRIVATE&lt;000000000014fdc0&gt; (1 samples, 0.65%)</title><rect x="64.0" y="133" width="7.7" height="15.0" fill="rgb(251,188,36)" rx="2" ry="2" />
<text  x="66.99" y="143.5" ></text>
</g>
<g >
<title>xcb_get_setup&lt;000000000000e080&gt; (1 samples, 0.65%)</title><rect x="1182.3" y="325" width="7.7" height="15.0" fill="rgb(228,63,35)" rx="2" ry="2" />
<text  x="1185.29" y="335.5" ></text>
</g>
<g >
<title>__driDriverGetExtensions_d3d12&lt;00000000000a9570&gt; (1 samples, 0.65%)</title><rect x="48.6" y="245" width="7.7" height="15.0" fill="rgb(226,228,16)" rx="2" ry="2" />
<text  x="51.56" y="255.5" ></text>
</g>
<g >
<title>nouveau_drm_screen_create (2 samples, 1.31%)</title><rect x="118.0" y="309" width="15.4" height="15.0" fill="rgb(210,201,12)" rx="2" ry="2" />
<text  x="120.97" y="319.5" ></text>
</g>
<g >
<title>0x00007f9428fe6915 (1 samples, 0.65%)</title><rect x="25.4" y="309" width="7.7" height="15.0" fill="rgb(252,213,11)" rx="2" ry="2" />
<text  x="28.42" y="319.5" ></text>
</g>
<g >
<title>_dl_rtld_di_serinfo@@GLIBC_PRIVATE&lt;0000000000008e00&gt; (1 samples, 0.65%)</title><rect x="64.0" y="53" width="7.7" height="15.0" fill="rgb(224,104,45)" rx="2" ry="2" />
<text  x="66.99" y="63.5" ></text>
</g>
<g >
<title>memcpy@GLIBC_2.2.5&lt;00000000000a0d30&gt; (1 samples, 0.65%)</title><rect x="40.8" y="261" width="7.8" height="15.0" fill="rgb(249,127,54)" rx="2" ry="2" />
<text  x="43.85" y="271.5" ></text>
</g>
<g >
<title>__libc_init_first@@GLIBC_2.2.5&lt;0000000000023200&gt; (153 samples, 100.00%)</title><rect x="10.0" y="469" width="1180.0" height="15.0" fill="rgb(221,15,48)" rx="2" ry="2" />
<text  x="13.00" y="479.5" >__libc_init_first@@GLIBC_2.2.5&lt;0000000000023200&gt;</text>
</g>
<g >
<title>XML_ParserReset&lt;000000000000ebc0&gt; (1 samples, 0.65%)</title><rect x="71.7" y="197" width="7.7" height="15.0" fill="rgb(230,159,6)" rx="2" ry="2" />
<text  x="74.70" y="207.5" ></text>
</g>
<g >
<title>drmIoctl&lt;00000000000072f0&gt; (2 samples, 1.31%)</title><rect x="118.0" y="229" width="15.4" height="15.0" fill="rgb(245,126,4)" rx="2" ry="2" />
<text  x="120.97" y="239.5" ></text>
</g>
<g >
<title>nouveau_drm_screen_create (4 samples, 2.61%)</title><rect x="1128.3" y="293" width="30.9" height="15.0" fill="rgb(218,114,3)" rx="2" ry="2" />
<text  x="1131.30" y="303.5" >no..</text>
</g>
<g >
<title>__driDriverGetExtensions_d3d12&lt;00000000000a9570&gt; (1 samples, 0.65%)</title><rect x="110.3" y="373" width="7.7" height="15.0" fill="rgb(241,211,32)" rx="2" ry="2" />
<text  x="113.26" y="383.5" ></text>
</g>
<g >
<title>0x00007f9428ff9ab8 (1 samples, 0.65%)</title><rect x="17.7" y="277" width="7.7" height="15.0" fill="rgb(252,223,40)" rx="2" ry="2" />
<text  x="20.71" y="287.5" ></text>
</g>
<g >
<title>SDL_DYNAPI_entry (2 samples, 1.31%)</title><rect x="25.4" y="357" width="15.4" height="15.0" fill="rgb(235,170,5)" rx="2" ry="2" />
<text  x="28.42" y="367.5" ></text>
</g>
<g >
<title>pa_context_unref@@PULSE_0&lt;0000000000011950&gt; (1 samples, 0.65%)</title><rect x="94.8" y="341" width="7.7" height="15.0" fill="rgb(214,3,47)" rx="2" ry="2" />
<text  x="97.84" y="351.5" ></text>
</g>
<g >
<title>XML_ParserReset&lt;000000000000ebc0&gt; (1 samples, 0.65%)</title><rect x="71.7" y="213" width="7.7" height="15.0" fill="rgb(232,69,2)" rx="2" ry="2" />
<text  x="74.70" y="223.5" ></text>
</g>
<g >
<title>__glDispatchMakeCurrent&lt;0000000000042ae0&gt; (1 samples, 0.65%)</title><rect x="79.4" y="309" width="7.7" height="15.0" fill="rgb(232,19,33)" rx="2" ry="2" />
<text  x="82.41" y="319.5" ></text>
</g>
<g >
<title>_dl_catch_exception@@GLIBC_PRIVATE&lt;000000000014fdc0&gt; (1 samples, 0.65%)</title><rect x="64.0" y="101" width="7.7" height="15.0" fill="rgb(229,206,49)" rx="2" ry="2" />
<text  x="66.99" y="111.5" ></text>
</g>
<g >
<title>glAreTexturesResidentEXT&lt;000000000003f600&gt; (139 samples, 90.85%)</title><rect x="118.0" y="373" width="1072.0" height="15.0" fill="rgb(228,36,24)" rx="2" ry="2" />
<text  x="120.97" y="383.5" >glAreTexturesResidentEXT&lt;000000000003f600&gt;</text>
</g>
<g >
<title>_glapi_get_proc_address&lt;000000000001a450&gt; (1 samples, 0.65%)</title><rect x="79.4" y="277" width="7.7" height="15.0" fill="rgb(209,5,8)" rx="2" ry="2" />
<text  x="82.41" y="287.5" ></text>
</g>
<g >
<title>0x00007f9428fe109e (1 samples, 0.65%)</title><rect x="25.4" y="341" width="7.7" height="15.0" fill="rgb(237,201,18)" rx="2" ry="2" />
<text  x="28.42" y="351.5" ></text>
</g>
<g >
<title>ioctl@@GLIBC_2.2.5&lt;00000000000fcbd0&gt; (2 samples, 1.31%)</title><rect x="118.0" y="213" width="15.4" height="15.0" fill="rgb(205,172,27)" rx="2" ry="2" />
<text  x="120.97" y="223.5" ></text>
</g>
<g >
<title>SDL_CreateThread&lt;0000000000042220&gt; (1 samples, 0.65%)</title><rect x="94.8" y="421" width="7.7" height="15.0" fill="rgb(238,217,25)" rx="2" ry="2" />
<text  x="97.84" y="431.5" ></text>
</g>
<g >
<title>0x00007f9428fdffb6 (1 samples, 0.65%)</title><rect x="33.1" y="325" width="7.7" height="15.0" fill="rgb(234,178,17)" rx="2" ry="2" />
<text  x="36.14" y="335.5" ></text>
</g>
<g >
<title>xcb_get_setup&lt;000000000000e080&gt; (1 samples, 0.65%)</title><rect x="1182.3" y="309" width="7.7" height="15.0" fill="rgb(226,107,8)" rx="2" ry="2" />
<text  x="1185.29" y="319.5" ></text>
</g>
<g >
<title>nouveau_drm_screen_create (1 samples, 0.65%)</title><rect x="110.3" y="357" width="7.7" height="15.0" fill="rgb(214,115,38)" rx="2" ry="2" />
<text  x="113.26" y="367.5" ></text>
</g>
<g >
<title>SDL_DYNAPI_entry (6 samples, 3.92%)</title><rect x="48.6" y="405" width="46.2" height="15.0" fill="rgb(254,216,1)" rx="2" ry="2" />
<text  x="51.56" y="415.5" >SDL_..</text>
</g>
<g >
<title>main&lt;00000000000796e0&gt; (153 samples, 100.00%)</title><rect x="10.0" y="453" width="1180.0" height="15.0" fill="rgb(220,25,12)" rx="2" ry="2" />
<text  x="13.00" y="463.5" >main&lt;00000000000796e0&gt;</text>
</g>
<g >
<title>_XimLcctstowcs&lt;000000000006d8e0&gt; (1 samples, 0.65%)</title><rect x="40.8" y="325" width="7.8" height="15.0" fill="rgb(248,154,42)" rx="2" ry="2" />
<text  x="43.85" y="335.5" ></text>
</g>
<g >
<title>writev@@GLIBC_2.2.5&lt;00000000000fccf0&gt; (1 samples, 0.65%)</title><rect x="1182.3" y="277" width="7.7" height="15.0" fill="rgb(233,85,20)" rx="2" ry="2" />
<text  x="1185.29" y="287.5" ></text>
</g>
<g >
<title>SDL_DYNAPI_entry (1 samples, 0.65%)</title><rect x="102.5" y="357" width="7.8" height="15.0" fill="rgb(234,55,10)" rx="2" ry="2" />
<text  x="105.55" y="367.5" ></text>
</g>
<g >
<title>pa_pstream_unlink&lt;00000000000487b0&gt; (1 samples, 0.65%)</title><rect x="94.8" y="309" width="7.7" height="15.0" fill="rgb(245,141,29)" rx="2" ry="2" />
<text  x="97.84" y="319.5" ></text>
</g>
<g >
<title>0x00007f9428ff3c9d (1 samples, 0.65%)</title><rect x="17.7" y="325" width="7.7" height="15.0" fill="rgb(215,120,27)" rx="2" ry="2" />
<text  x="20.71" y="335.5" ></text>
</g>
<g >
<title>0x00007f9428febfe2 (1 samples, 0.65%)</title><rect x="33.1" y="245" width="7.7" height="15.0" fill="rgb(247,56,39)" rx="2" ry="2" />
<text  x="36.14" y="255.5" ></text>
</g>
<g >
<title>nouveau_object_new&lt;0000000000003380&gt; (1 samples, 0.65%)</title><rect x="48.6" y="181" width="7.7" height="15.0" fill="rgb(235,209,28)" rx="2" ry="2" />
<text  x="51.56" y="191.5" ></text>
</g>
<g >
<title>xcb_get_setup&lt;000000000000e080&gt; (2 samples, 1.31%)</title><rect x="1166.9" y="293" width="15.4" height="15.0" fill="rgb(247,111,40)" rx="2" ry="2" />
<text  x="1169.86" y="303.5" ></text>
</g>
<g >
<title>glLabelObjectEXT (1 samples, 0.65%)</title><rect x="64.0" y="261" width="7.7" height="15.0" fill="rgb(213,212,2)" rx="2" ry="2" />
<text  x="66.99" y="271.5" ></text>
</g>
<g >
<title>nouveau_bo_ref&lt;0000000000004240&gt; (1 samples, 0.65%)</title><rect x="110.3" y="309" width="7.7" height="15.0" fill="rgb(239,62,41)" rx="2" ry="2" />
<text  x="113.26" y="319.5" ></text>
</g>
<g >
<title>xcb_flush&lt;000000000000e870&gt; (1 samples, 0.65%)</title><rect x="1182.3" y="341" width="7.7" height="15.0" fill="rgb(253,188,32)" rx="2" ry="2" />
<text  x="1185.29" y="351.5" ></text>
</g>
<g >
<title>recvmsg@@GLIBC_2.2.5&lt;0000000000109c20&gt; (2 samples, 1.31%)</title><rect x="1166.9" y="277" width="15.4" height="15.0" fill="rgb(252,97,19)" rx="2" ry="2" />
<text  x="1169.86" y="287.5" ></text>
</g>
<g >
<title>nouveau_pushbuf_data&lt;0000000000004a40&gt; (2 samples, 1.31%)</title><rect x="118.0" y="277" width="15.4" height="15.0" fill="rgb(246,225,9)" rx="2" ry="2" />
<text  x="120.97" y="287.5" ></text>
</g>
<g >
<title>glLabelObjectEXT (3 samples, 1.96%)</title><rect x="1159.2" y="341" width="23.1" height="15.0" fill="rgb(218,155,18)" rx="2" ry="2" />
<text  x="1162.15" y="351.5" >g..</text>
</g>
<g >
<title>_XlcMapOSLocaleName&lt;0000000000036d50&gt; (1 samples, 0.65%)</title><rect x="40.8" y="277" width="7.8" height="15.0" fill="rgb(215,54,7)" rx="2" ry="2" />
<text  x="43.85" y="287.5" ></text>
</g>
<g >
<title>0x00007f9428ffa3e3 (1 samples, 0.65%)</title><rect x="17.7" y="309" width="7.7" height="15.0" fill="rgb(253,161,39)" rx="2" ry="2" />
<text  x="20.71" y="319.5" ></text>
</g>
<g >
<title>glLabelObjectEXT (139 samples, 90.85%)</title><rect x="118.0" y="357" width="1072.0" height="15.0" fill="rgb(230,161,33)" rx="2" ry="2" />
<text  x="120.97" y="367.5" >glLabelObjectEXT</text>
</g>
<g >
<title>0x00007f9428fe6915 (1 samples, 0.65%)</title><rect x="17.7" y="293" width="7.7" height="15.0" fill="rgb(207,185,15)" rx="2" ry="2" />
<text  x="20.71" y="303.5" ></text>
</g>
<g >
<title>glIsTextureEXT&lt;000000000001a370&gt; (139 samples, 90.85%)</title><rect x="118.0" y="389" width="1072.0" height="15.0" fill="rgb(237,173,24)" rx="2" ry="2" />
<text  x="120.97" y="399.5" >glIsTextureEXT&lt;000000000001a370&gt;</text>
</g>
<g >
<title>0x00007f9428fe6915 (1 samples, 0.65%)</title><rect x="10.0" y="309" width="7.7" height="15.0" fill="rgb(223,225,19)" rx="2" ry="2" />
<text  x="13.00" y="319.5" ></text>
</g>
<g >
<title>glLabelObjectEXT (1 samples, 0.65%)</title><rect x="71.7" y="261" width="7.7" height="15.0" fill="rgb(253,156,28)" rx="2" ry="2" />
<text  x="74.70" y="271.5" ></text>
</g>
<g >
<title>Game_Loop::Game_Loop() (11 samples, 7.19%)</title><rect x="10.0" y="437" width="84.8" height="15.0" fill="rgb(247,143,48)" rx="2" ry="2" />
<text  x="13.00" y="447.5" >Game_Loop..</text>
</g>
<g >
<title>nouveau_object_mthd&lt;0000000000002f90&gt; (1 samples, 0.65%)</title><rect x="48.6" y="165" width="7.7" height="15.0" fill="rgb(223,40,45)" rx="2" ry="2" />
<text  x="51.56" y="175.5" ></text>
</g>
<g >
<title>xcb_poll_for_special_event&lt;000000000000ef20&gt; (2 samples, 1.31%)</title><rect x="1166.9" y="309" width="15.4" height="15.0" fill="rgb(246,33,43)" rx="2" ry="2" />
<text  x="1169.86" y="319.5" ></text>
</g>
<g >
<title>_XimLocalOpenIM&lt;0000000000070570&gt; (1 samples, 0.65%)</title><rect x="40.8" y="341" width="7.8" height="15.0" fill="rgb(253,178,47)" rx="2" ry="2" />
<text  x="43.85" y="351.5" ></text>
</g>
<g >
<title>SDL_DYNAPI_entry (5 samples, 3.27%)</title><rect x="10.0" y="389" width="38.6" height="15.0" fill="rgb(248,96,16)" rx="2" ry="2" />
<text  x="13.00" y="399.5" >SDL..</text>
</g>
<g >
<title>SDL_DYNAPI_entry (5 samples, 3.27%)</title><rect x="48.6" y="389" width="38.5" height="15.0" fill="rgb(251,192,20)" rx="2" ry="2" />
<text  x="51.56" y="399.5" >SDL..</text>
</g>
<g >
<title>SDL_DYNAPI_entry (1 samples, 0.65%)</title><rect x="94.8" y="373" width="7.7" height="15.0" fill="rgb(239,135,49)" rx="2" ry="2" />
<text  x="97.84" y="383.5" ></text>
</g>
<g >
<title>pa_mainloop_wakeup@@PULSE_0&lt;000000000001cf70&gt; (1 samples, 0.65%)</title><rect x="94.8" y="261" width="7.7" height="15.0" fill="rgb(211,116,41)" rx="2" ry="2" />
<text  x="97.84" y="271.5" ></text>
</g>
<g >
<title>readlinkat@@GLIBC_2.4&lt;00000000000f88d0&gt; (1 samples, 0.65%)</title><rect x="33.1" y="229" width="7.7" height="15.0" fill="rgb(209,125,8)" rx="2" ry="2" />
<text  x="36.14" y="239.5" ></text>
</g>
<g >
<title>drmCommandWriteRead&lt;000000000000a8c0&gt; (1 samples, 0.65%)</title><rect x="48.6" y="149" width="7.7" height="15.0" fill="rgb(212,15,17)" rx="2" ry="2" />
<text  x="51.56" y="159.5" ></text>
</g>
<g >
<title>_Xlcmbstowcs&lt;000000000005cdc0&gt; (1 samples, 0.65%)</title><rect x="40.8" y="309" width="7.8" height="15.0" fill="rgb(217,151,25)" rx="2" ry="2" />
<text  x="43.85" y="319.5" ></text>
</g>
<g >
<title>XML_ParseBuffer&lt;0000000000010870&gt; (1 samples, 0.65%)</title><rect x="71.7" y="229" width="7.7" height="15.0" fill="rgb(227,39,4)" rx="2" ry="2" />
<text  x="74.70" y="239.5" ></text>
</g>
<g >
<title>nouveau_pushbuf_data&lt;0000000000004a40&gt; (2 samples, 1.31%)</title><rect x="118.0" y="261" width="15.4" height="15.0" fill="rgb(229,208,31)" rx="2" ry="2" />
<text  x="120.97" y="271.5" ></text>
</g>
<g >
<title>SDL_DYNAPI_entry (141 samples, 92.16%)</title><rect x="102.5" y="405" width="1087.5" height="15.0" fill="rgb(221,12,13)" rx="2" ry="2" />
<text  x="105.55" y="415.5" >SDL_DYNAPI_entry</text>
</g>
<g >
<title>pa_write&lt;00000000000244e0&gt; (1 samples, 0.65%)</title><rect x="94.8" y="245" width="7.7" height="15.0" fill="rgb(229,140,35)" rx="2" ry="2" />
<text  x="97.84" y="255.5" ></text>
</g>
<g >
<title>__driDriverGetExtensions_d3d12&lt;00000000000a9570&gt; (1 samples, 0.65%)</title><rect x="48.6" y="261" width="7.7" height="15.0" fill="rgb(208,37,54)" rx="2" ry="2" />
<text  x="51.56" y="271.5" ></text>
</g>
<g >
<title>glXGetCurrentContext&lt;00000000000173f0&gt; (1 samples, 0.65%)</title><rect x="79.4" y="325" width="7.7" height="15.0" fill="rgb(217,40,39)" rx="2" ry="2" />
<text  x="82.41" y="335.5" ></text>
</g>
<g >
<title>__driDriverGetExtensions_d3d12&lt;00000000000a9570&gt; (1 samples, 0.65%)</title><rect x="48.6" y="277" width="7.7" height="15.0" fill="rgb(238,20,7)" rx="2" ry="2" />
<text  x="51.56" y="287.5" ></text>
</g>
<g >
<title>SDL_DYNAPI_entry (1 samples, 0.65%)</title><rect x="102.5" y="373" width="7.8" height="15.0" fill="rgb(245,173,29)" rx="2" ry="2" />
<text  x="105.55" y="383.5" ></text>
</g>
<g >
<title>0x00007f9428ffa3e3 (1 samples, 0.65%)</title><rect x="25.4" y="325" width="7.7" height="15.0" fill="rgb(228,206,10)" rx="2" ry="2" />
<text  x="28.42" y="335.5" ></text>
</g>
<g >
<title>__write@@GLIBC_2.2.5&lt;00000000000f70a0&gt; (1 samples, 0.65%)</title><rect x="94.8" y="229" width="7.7" height="15.0" fill="rgb(225,132,47)" rx="2" ry="2" />
<text  x="97.84" y="239.5" ></text>
</g>
<g >
<title>SDL_DYNAPI_entry (5 samples, 3.27%)</title><rect x="48.6" y="357" width="38.5" height="15.0" fill="rgb(207,128,21)" rx="2" ry="2" />
<text  x="51.56" y="367.5" >SDL..</text>
</g>
<g >
<title>_dl_catch_error@@GLIBC_PRIVATE&lt;000000000014fec0&gt; (1 samples, 0.65%)</title><rect x="64.0" y="197" width="7.7" height="15.0" fill="rgb(221,131,34)" rx="2" ry="2" />
<text  x="66.99" y="207.5" ></text>
</g>
<g >
<title>SDL_CreateThread&lt;0000000000042220&gt; (1 samples, 0.65%)</title><rect x="94.8" y="405" width="7.7" height="15.0" fill="rgb(223,197,42)" rx="2" ry="2" />
<text  x="97.84" y="415.5" ></text>
</g>
<g >
<title>SDL_DYNAPI_entry (2 samples, 1.31%)</title><rect x="102.5" y="389" width="15.5" height="15.0" fill="rgb(224,145,15)" rx="2" ry="2" />
<text  x="105.55" y="399.5" ></text>
</g>
<g >
<title>0x00007f9428fdffb6 (2 samples, 1.31%)</title><rect x="10.0" y="357" width="15.4" height="15.0" fill="rgb(207,69,7)" rx="2" ry="2" />
<text  x="13.00" y="367.5" ></text>
</g>
<g >
<title>0x00007f9428fdfb76 (1 samples, 0.65%)</title><rect x="33.1" y="309" width="7.7" height="15.0" fill="rgb(225,223,10)" rx="2" ry="2" />
<text  x="36.14" y="319.5" ></text>
</g>
<g >
<title>_glapi_tls_Current&lt;0000000000000000&gt; (1 samples, 0.65%)</title><rect x="79.4" y="293" width="7.7" height="15.0" fill="rgb(217,62,25)" rx="2" ry="2" />
<text  x="82.41" y="303.5" ></text>
</g>
<g >
<title>_dl_rtld_di_serinfo@@GLIBC_PRIVATE&lt;0000000000008e00&gt; (1 samples, 0.65%)</title><rect x="64.0" y="117" width="7.7" height="15.0" fill="rgb(227,0,26)" rx="2" ry="2" />
<text  x="66.99" y="127.5" ></text>
</g>
<g >
<title>__close@@GLIBC_2.2.5&lt;00000000000f7760&gt; (1 samples, 0.65%)</title><rect x="17.7" y="245" width="7.7" height="15.0" fill="rgb(241,72,12)" rx="2" ry="2" />
<text  x="20.71" y="255.5" ></text>
</g>
<g >
<title>__driDriverGetExtensions_d3d12&lt;00000000000a9570&gt; (1 samples, 0.65%)</title><rect x="87.1" y="373" width="7.7" height="15.0" fill="rgb(222,223,22)" rx="2" ry="2" />
<text  x="90.12" y="383.5" ></text>
</g>
<g >
<title>0x00007f9428fe6915 (1 samples, 0.65%)</title><rect x="33.1" y="277" width="7.7" height="15.0" fill="rgb(225,141,13)" rx="2" ry="2" />
<text  x="36.14" y="287.5" ></text>
</g>
<g >
<title>0x00007f9428ffa3e3 (1 samples, 0.65%)</title><rect x="33.1" y="293" width="7.7" height="15.0" fill="rgb(222,159,48)" rx="2" ry="2" />
<text  x="36.14" y="303.5" ></text>
</g>
<g >
<title>__driDriverGetExtensions_d3d12&lt;00000000000a9570&gt; (2 samples, 1.31%)</title><rect x="118.0" y="325" width="15.4" height="15.0" fill="rgb(208,58,13)" rx="2" ry="2" />
<text  x="120.97" y="335.5" ></text>
</g>
<g >
<title>XML_SetBillionLaughsAttackProtectionActivationThreshold (1 samples, 0.65%)</title><rect x="71.7" y="165" width="7.7" height="15.0" fill="rgb(251,127,32)" rx="2" ry="2" />
<text  x="74.70" y="175.5" ></text>
</g>
<g >
<title>__driDriverGetExtensions_d3d12&lt;00000000000a9570&gt; (1 samples, 0.65%)</title><rect x="87.1" y="389" width="7.7" height="15.0" fill="rgb(219,82,10)" rx="2" ry="2" />
<text  x="90.12" y="399.5" ></text>
</g>
<g >
<title>__driDriverGetExtensions_d3d12&lt;00000000000a9570&gt; (1 samples, 0.65%)</title><rect x="87.1" y="357" width="7.7" height="15.0" fill="rgb(221,227,2)" rx="2" ry="2" />
<text  x="90.12" y="367.5" ></text>
</g>
<g >
<title>_dl_find_dso_for_object@@GLIBC_PRIVATE&lt;000000000000b770&gt; (1 samples, 0.65%)</title><rect x="64.0" y="149" width="7.7" height="15.0" fill="rgb(242,176,22)" rx="2" ry="2" />
<text  x="66.99" y="159.5" ></text>
</g>
<g >
<title>0x00007f9428ff983f (1 samples, 0.65%)</title><rect x="25.4" y="293" width="7.7" height="15.0" fill="rgb(237,152,46)" rx="2" ry="2" />
<text  x="28.42" y="303.5" ></text>
</g>
<g >
<title>0x00007f9428febd0a (1 samples, 0.65%)</title><rect x="17.7" y="261" width="7.7" height="15.0" fill="rgb(212,122,23)" rx="2" ry="2" />
<text  x="20.71" y="271.5" ></text>
</g>
<g >
<title>pa_iochannel_free&lt;0000000000028700&gt; (1 samples, 0.65%)</title><rect x="94.8" y="293" width="7.7" height="15.0" fill="rgb(211,173,37)" rx="2" ry="2" />
<text  x="97.84" y="303.5" ></text>
</g>
<g >
<title>XML_ParserReset&lt;000000000000ebc0&gt; (1 samples, 0.65%)</title><rect x="71.7" y="181" width="7.7" height="15.0" fill="rgb(211,7,8)" rx="2" ry="2" />
<text  x="74.70" y="191.5" ></text>
</g>
<g >
<title>_XOpenLC&lt;000000000005c970&gt; (1 samples, 0.65%)</title><rect x="40.8" y="293" width="7.8" height="15.0" fill="rgb(249,124,9)" rx="2" ry="2" />
<text  x="43.85" y="303.5" ></text>
</g>
<g >
<title>SDL_DYNAPI_entry (1 samples, 0.65%)</title><rect x="102.5" y="341" width="7.8" height="15.0" fill="rgb(254,51,15)" rx="2" ry="2" />
<text  x="105.55" y="351.5" ></text>
</g>
<g >
<title>SDL_DYNAPI_entry (5 samples, 3.27%)</title><rect x="10.0" y="405" width="38.6" height="15.0" fill="rgb(245,20,44)" rx="2" ry="2" />
<text  x="13.00" y="415.5" >SDL..</text>
</g>
<g >
<title>glIsTextureEXT&lt;000000000001a370&gt; (4 samples, 2.61%)</title><rect x="48.6" y="325" width="30.8" height="15.0" fill="rgb(232,62,31)" rx="2" ry="2" />
<text  x="51.56" y="335.5" >gl..</text>
</g>
<g >
<title>ioctl@@GLIBC_2.2.5&lt;00000000000fcbd0&gt; (1 samples, 0.65%)</title><rect x="48.6" y="117" width="7.7" height="15.0" fill="rgb(250,209,15)" rx="2" ry="2" />
<text  x="51.56" y="127.5" ></text>
</g>
</g>
</svg>
