<?xml version="1.0" standalone="no"?>
<!DOCTYPE svg PUBLIC "-//W3C//DTD SVG 1.1//EN" "http://www.w3.org/Graphics/SVG/1.1/DTD/svg11.dtd">
<svg version="1.1" width="1200" height="566" onload="init(evt)" viewBox="0 0 1200 566" xmlns="http://www.w3.org/2000/svg" xmlns:xlink="http://www.w3.org/1999/xlink">
<!-- Flame graph stack visualization. See https://github.com/brendangregg/FlameGraph for latest version, and http://www.brendangregg.com/flamegraphs.html for examples. -->
<!-- NOTES:  -->
<defs>
	<linearGradient id="background" y1="0" y2="1" x1="0" x2="0" >
		<stop stop-color="#eeeeee" offset="5%" />
		<stop stop-color="#eeeeb0" offset="95%" />
	</linearGradient>
</defs>
<style type="text/css">
	text { font-family:Verdana; font-size:12px; fill:rgb(0,0,0); }
	#search, #ignorecase { opacity:0.1; cursor:pointer; }
	#search:hover, #search.show, #ignorecase:hover, #ignorecase.show { opacity:1; }
	#subtitle { text-anchor:middle; font-color:rgb(160,160,160); }
	#title { text-anchor:middle; font-size:17px}
	#unzoom { cursor:pointer; }
	#frames > *:hover { stroke:black; stroke-width:0.5; cursor:pointer; }
	.hide { display:none; }
	.parent { opacity:0.5; }
</style>
<script type="text/ecmascript">
<![CDATA[
	"use strict";
	var details, searchbtn, unzoombtn, matchedtxt, svg, searching, currentSearchTerm, ignorecase, ignorecaseBtn;
	function init(evt) {
		details = document.getElementById("details").firstChild;
		searchbtn = document.getElementById("search");
		ignorecaseBtn = document.getElementById("ignorecase");
		unzoombtn = document.getElementById("unzoom");
		matchedtxt = document.getElementById("matched");
		svg = document.getElementsByTagName("svg")[0];
		searching = 0;
		currentSearchTerm = null;

		// use GET parameters to restore a flamegraphs state.
		var params = get_params();
		if (params.x && params.y)
			zoom(find_group(document.querySelector('[x="' + params.x + '"][y="' + params.y + '"]')));
                if (params.s) search(params.s);
	}

	// event listeners
	window.addEventListener("click", function(e) {
		var target = find_group(e.target);
		if (target) {
			if (target.nodeName == "a") {
				if (e.ctrlKey === false) return;
				e.preventDefault();
			}
			if (target.classList.contains("parent")) unzoom(true);
			zoom(target);
			if (!document.querySelector('.parent')) {
				// we have basically done a clearzoom so clear the url
				var params = get_params();
				if (params.x) delete params.x;
				if (params.y) delete params.y;
				history.replaceState(null, null, parse_params(params));
				unzoombtn.classList.add("hide");
				return;
			}

			// set parameters for zoom state
			var el = target.querySelector("rect");
			if (el && el.attributes && el.attributes.y && el.attributes._orig_x) {
				var params = get_params()
				params.x = el.attributes._orig_x.value;
				params.y = el.attributes.y.value;
				history.replaceState(null, null, parse_params(params));
			}
		}
		else if (e.target.id == "unzoom") clearzoom();
		else if (e.target.id == "search") search_prompt();
		else if (e.target.id == "ignorecase") toggle_ignorecase();
	}, false)

	// mouse-over for info
	// show
	window.addEventListener("mouseover", function(e) {
		var target = find_group(e.target);
		if (target) details.nodeValue = "Function: " + g_to_text(target);
	}, false)

	// clear
	window.addEventListener("mouseout", function(e) {
		var target = find_group(e.target);
		if (target) details.nodeValue = ' ';
	}, false)

	// ctrl-F for search
	// ctrl-I to toggle case-sensitive search
	window.addEventListener("keydown",function (e) {
		if (e.keyCode === 114 || (e.ctrlKey && e.keyCode === 70)) {
			e.preventDefault();
			search_prompt();
		}
		else if (e.ctrlKey && e.keyCode === 73) {
			e.preventDefault();
			toggle_ignorecase();
		}
	}, false)

	// functions
	function get_params() {
		var params = {};
		var paramsarr = window.location.search.substr(1).split('&');
		for (var i = 0; i < paramsarr.length; ++i) {
			var tmp = paramsarr[i].split("=");
			if (!tmp[0] || !tmp[1]) continue;
			params[tmp[0]]  = decodeURIComponent(tmp[1]);
		}
		return params;
	}
	function parse_params(params) {
		var uri = "?";
		for (var key in params) {
			uri += key + '=' + encodeURIComponent(params[key]) + '&';
		}
		if (uri.slice(-1) == "&")
			uri = uri.substring(0, uri.length - 1);
		if (uri == '?')
			uri = window.location.href.split('?')[0];
		return uri;
	}
	function find_child(node, selector) {
		var children = node.querySelectorAll(selector);
		if (children.length) return children[0];
	}
	function find_group(node) {
		var parent = node.parentElement;
		if (!parent) return;
		if (parent.id == "frames") return node;
		return find_group(parent);
	}
	function orig_save(e, attr, val) {
		if (e.attributes["_orig_" + attr] != undefined) return;
		if (e.attributes[attr] == undefined) return;
		if (val == undefined) val = e.attributes[attr].value;
		e.setAttribute("_orig_" + attr, val);
	}
	function orig_load(e, attr) {
		if (e.attributes["_orig_"+attr] == undefined) return;
		e.attributes[attr].value = e.attributes["_orig_" + attr].value;
		e.removeAttribute("_orig_"+attr);
	}
	function g_to_text(e) {
		var text = find_child(e, "title").firstChild.nodeValue;
		return (text)
	}
	function g_to_func(e) {
		var func = g_to_text(e);
		// if there's any manipulation we want to do to the function
		// name before it's searched, do it here before returning.
		return (func);
	}
	function update_text(e) {
		var r = find_child(e, "rect");
		var t = find_child(e, "text");
		var w = parseFloat(r.attributes.width.value) -3;
		var txt = find_child(e, "title").textContent.replace(/\([^(]*\)$/,"");
		t.attributes.x.value = parseFloat(r.attributes.x.value) + 3;

		// Smaller than this size won't fit anything
		if (w < 2 * 12 * 0.59) {
			t.textContent = "";
			return;
		}

		t.textContent = txt;
		var sl = t.getSubStringLength(0, txt.length);
		// check if only whitespace or if we can fit the entire string into width w
		if (/^ *$/.test(txt) || sl < w)
			return;

		// this isn't perfect, but gives a good starting point
		// and avoids calling getSubStringLength too often
		var start = Math.floor((w/sl) * txt.length);
		for (var x = start; x > 0; x = x-2) {
			if (t.getSubStringLength(0, x + 2) <= w) {
				t.textContent = txt.substring(0, x) + "..";
				return;
			}
		}
		t.textContent = "";
	}

	// zoom
	function zoom_reset(e) {
		if (e.attributes != undefined) {
			orig_load(e, "x");
			orig_load(e, "width");
		}
		if (e.childNodes == undefined) return;
		for (var i = 0, c = e.childNodes; i < c.length; i++) {
			zoom_reset(c[i]);
		}
	}
	function zoom_child(e, x, ratio) {
		if (e.attributes != undefined) {
			if (e.attributes.x != undefined) {
				orig_save(e, "x");
				e.attributes.x.value = (parseFloat(e.attributes.x.value) - x - 10) * ratio + 10;
				if (e.tagName == "text")
					e.attributes.x.value = find_child(e.parentNode, "rect[x]").attributes.x.value + 3;
			}
			if (e.attributes.width != undefined) {
				orig_save(e, "width");
				e.attributes.width.value = parseFloat(e.attributes.width.value) * ratio;
			}
		}

		if (e.childNodes == undefined) return;
		for (var i = 0, c = e.childNodes; i < c.length; i++) {
			zoom_child(c[i], x - 10, ratio);
		}
	}
	function zoom_parent(e) {
		if (e.attributes) {
			if (e.attributes.x != undefined) {
				orig_save(e, "x");
				e.attributes.x.value = 10;
			}
			if (e.attributes.width != undefined) {
				orig_save(e, "width");
				e.attributes.width.value = parseInt(svg.width.baseVal.value) - (10 * 2);
			}
		}
		if (e.childNodes == undefined) return;
		for (var i = 0, c = e.childNodes; i < c.length; i++) {
			zoom_parent(c[i]);
		}
	}
	function zoom(node) {
		var attr = find_child(node, "rect").attributes;
		var width = parseFloat(attr.width.value);
		var xmin = parseFloat(attr.x.value);
		var xmax = parseFloat(xmin + width);
		var ymin = parseFloat(attr.y.value);
		var ratio = (svg.width.baseVal.value - 2 * 10) / width;

		// XXX: Workaround for JavaScript float issues (fix me)
		var fudge = 0.0001;

		unzoombtn.classList.remove("hide");

		var el = document.getElementById("frames").children;
		for (var i = 0; i < el.length; i++) {
			var e = el[i];
			var a = find_child(e, "rect").attributes;
			var ex = parseFloat(a.x.value);
			var ew = parseFloat(a.width.value);
			var upstack;
			// Is it an ancestor
			if (0 == 0) {
				upstack = parseFloat(a.y.value) > ymin;
			} else {
				upstack = parseFloat(a.y.value) < ymin;
			}
			if (upstack) {
				// Direct ancestor
				if (ex <= xmin && (ex+ew+fudge) >= xmax) {
					e.classList.add("parent");
					zoom_parent(e);
					update_text(e);
				}
				// not in current path
				else
					e.classList.add("hide");
			}
			// Children maybe
			else {
				// no common path
				if (ex < xmin || ex + fudge >= xmax) {
					e.classList.add("hide");
				}
				else {
					zoom_child(e, xmin, ratio);
					update_text(e);
				}
			}
		}
		search();
	}
	function unzoom(dont_update_text) {
		unzoombtn.classList.add("hide");
		var el = document.getElementById("frames").children;
		for(var i = 0; i < el.length; i++) {
			el[i].classList.remove("parent");
			el[i].classList.remove("hide");
			zoom_reset(el[i]);
			if(!dont_update_text) update_text(el[i]);
		}
		search();
	}
	function clearzoom() {
		unzoom();

		// remove zoom state
		var params = get_params();
		if (params.x) delete params.x;
		if (params.y) delete params.y;
		history.replaceState(null, null, parse_params(params));
	}

	// search
	function toggle_ignorecase() {
		ignorecase = !ignorecase;
		if (ignorecase) {
			ignorecaseBtn.classList.add("show");
		} else {
			ignorecaseBtn.classList.remove("show");
		}
		reset_search();
		search();
	}
	function reset_search() {
		var el = document.querySelectorAll("#frames rect");
		for (var i = 0; i < el.length; i++) {
			orig_load(el[i], "fill")
		}
		var params = get_params();
		delete params.s;
		history.replaceState(null, null, parse_params(params));
	}
	function search_prompt() {
		if (!searching) {
			var term = prompt("Enter a search term (regexp " +
			    "allowed, eg: ^ext4_)"
			    + (ignorecase ? ", ignoring case" : "")
			    + "\nPress Ctrl-i to toggle case sensitivity", "");
			if (term != null) search(term);
		} else {
			reset_search();
			searching = 0;
			currentSearchTerm = null;
			searchbtn.classList.remove("show");
			searchbtn.firstChild.nodeValue = "Search"
			matchedtxt.classList.add("hide");
			matchedtxt.firstChild.nodeValue = ""
		}
	}
	function search(term) {
		if (term) currentSearchTerm = term;

		var re = new RegExp(currentSearchTerm, ignorecase ? 'i' : '');
		var el = document.getElementById("frames").children;
		var matches = new Object();
		var maxwidth = 0;
		for (var i = 0; i < el.length; i++) {
			var e = el[i];
			var func = g_to_func(e);
			var rect = find_child(e, "rect");
			if (func == null || rect == null)
				continue;

			// Save max width. Only works as we have a root frame
			var w = parseFloat(rect.attributes.width.value);
			if (w > maxwidth)
				maxwidth = w;

			if (func.match(re)) {
				// highlight
				var x = parseFloat(rect.attributes.x.value);
				orig_save(rect, "fill");
				rect.attributes.fill.value = "rgb(230,0,230)";

				// remember matches
				if (matches[x] == undefined) {
					matches[x] = w;
				} else {
					if (w > matches[x]) {
						// overwrite with parent
						matches[x] = w;
					}
				}
				searching = 1;
			}
		}
		if (!searching)
			return;
		var params = get_params();
		params.s = currentSearchTerm;
		history.replaceState(null, null, parse_params(params));

		searchbtn.classList.add("show");
		searchbtn.firstChild.nodeValue = "Reset Search";

		// calculate percent matched, excluding vertical overlap
		var count = 0;
		var lastx = -1;
		var lastw = 0;
		var keys = Array();
		for (k in matches) {
			if (matches.hasOwnProperty(k))
				keys.push(k);
		}
		// sort the matched frames by their x location
		// ascending, then width descending
		keys.sort(function(a, b){
			return a - b;
		});
		// Step through frames saving only the biggest bottom-up frames
		// thanks to the sort order. This relies on the tree property
		// where children are always smaller than their parents.
		var fudge = 0.0001;	// JavaScript floating point
		for (var k in keys) {
			var x = parseFloat(keys[k]);
			var w = matches[keys[k]];
			if (x >= lastx + lastw - fudge) {
				count += w;
				lastx = x;
				lastw = w;
			}
		}
		// display matched percent
		matchedtxt.classList.remove("hide");
		var pct = 100 * count / maxwidth;
		if (pct != 100) pct = pct.toFixed(1)
		matchedtxt.firstChild.nodeValue = "Matched: " + pct + "%";
	}
]]>
</script>
<rect x="0.0" y="0" width="1200.0" height="566.0" fill="url(#background)"  />
<text id="title" x="600.00" y="24" >Flame Graph</text>
<text id="details" x="10.00" y="549" > </text>
<text id="unzoom" x="10.00" y="24" class="hide">Reset Zoom</text>
<text id="search" x="1090.00" y="24" >Search</text>
<text id="ignorecase" x="1174.00" y="24" >ic</text>
<text id="matched" x="1090.00" y="549" > </text>
<g id="frames">
<g >
<title>0x00007f83e0dac83f (1 samples, 1.02%)</title><rect x="58.2" y="245" width="12.0" height="15.0" fill="rgb(227,201,21)" rx="2" ry="2" />
<text  x="61.16" y="255.5" ></text>
</g>
<g >
<title>glLabelObjectEXT (3 samples, 3.06%)</title><rect x="1141.8" y="325" width="36.2" height="15.0" fill="rgb(248,200,42)" rx="2" ry="2" />
<text  x="1144.84" y="335.5" >glL..</text>
</g>
<g >
<title>__driDriverGetExtensions_d3d12&lt;00000000000a9570&gt; (1 samples, 1.02%)</title><rect x="178.6" y="341" width="12.0" height="15.0" fill="rgb(218,86,35)" rx="2" ry="2" />
<text  x="181.57" y="351.5" ></text>
</g>
<g >
<title>SDL_DYNAPI_entry (6 samples, 6.12%)</title><rect x="82.2" y="389" width="72.3" height="15.0" fill="rgb(208,42,35)" rx="2" ry="2" />
<text  x="85.24" y="399.5" >SDL_DYNA..</text>
</g>
<g >
<title>xcb_get_setup&lt;000000000000e080&gt; (1 samples, 1.02%)</title><rect x="1178.0" y="325" width="12.0" height="15.0" fill="rgb(254,140,35)" rx="2" ry="2" />
<text  x="1180.96" y="335.5" ></text>
</g>
<g >
<title>0x00007f83e0da536a (2 samples, 2.04%)</title><rect x="34.1" y="341" width="24.1" height="15.0" fill="rgb(246,125,4)" rx="2" ry="2" />
<text  x="37.08" y="351.5" >0..</text>
</g>
<g >
<title>__driDriverGetExtensions_d3d12&lt;00000000000a9570&gt; (1 samples, 1.02%)</title><rect x="130.4" y="181" width="12.0" height="15.0" fill="rgb(240,67,35)" rx="2" ry="2" />
<text  x="133.41" y="191.5" ></text>
</g>
<g >
<title>SDL_DYNAPI_entry (4 samples, 4.08%)</title><rect x="34.1" y="405" width="48.1" height="15.0" fill="rgb(252,222,54)" rx="2" ry="2" />
<text  x="37.08" y="415.5" >SDL_..</text>
</g>
<g >
<title>dlerror@GLIBC_2.2.5 (1 samples, 1.02%)</title><rect x="106.3" y="213" width="12.1" height="15.0" fill="rgb(237,13,34)" rx="2" ry="2" />
<text  x="109.33" y="223.5" ></text>
</g>
<g >
<title>nouveau_bo_ref&lt;0000000000004240&gt; (1 samples, 1.02%)</title><rect x="130.4" y="117" width="12.0" height="15.0" fill="rgb(248,180,16)" rx="2" ry="2" />
<text  x="133.41" y="127.5" ></text>
</g>
<g >
<title>__nss_database_lookup@GLIBC_2.2.5&lt;0000000000152e00&gt; (1 samples, 1.02%)</title><rect x="22.0" y="133" width="12.1" height="15.0" fill="rgb(250,207,21)" rx="2" ry="2" />
<text  x="25.04" y="143.5" ></text>
</g>
<g >
<title>nouveau_drm_screen_create (1 samples, 1.02%)</title><rect x="1129.8" y="293" width="12.0" height="15.0" fill="rgb(224,98,39)" rx="2" ry="2" />
<text  x="1132.80" y="303.5" ></text>
</g>
<g >
<title>__libc_init_first@@GLIBC_2.2.5&lt;0000000000023200&gt; (98 samples, 100.00%)</title><rect x="10.0" y="469" width="1180.0" height="15.0" fill="rgb(244,150,7)" rx="2" ry="2" />
<text  x="13.00" y="479.5" >__libc_init_first@@GLIBC_2.2.5&lt;0000000000023200&gt;</text>
</g>
<g >
<title>__sched_yield@@GLIBC_2.2.5&lt;00000000000ecb20&gt; (78 samples, 79.59%)</title><rect x="190.6" y="293" width="939.2" height="15.0" fill="rgb(207,93,36)" rx="2" ry="2" />
<text  x="193.61" y="303.5" >__sched_yield@@GLIBC_2.2.5&lt;00000000000ecb20&gt;</text>
</g>
<g >
<title>SDL_CreateThread&lt;0000000000042220&gt; (5 samples, 5.10%)</title><rect x="22.0" y="421" width="60.2" height="15.0" fill="rgb(231,172,51)" rx="2" ry="2" />
<text  x="25.04" y="431.5" >SDL_Cr..</text>
</g>
<g >
<title>pa_context_new_with_proplist@@PULSE_0&lt;0000000000011550&gt; (1 samples, 1.02%)</title><rect x="22.0" y="357" width="12.1" height="15.0" fill="rgb(218,168,10)" rx="2" ry="2" />
<text  x="25.04" y="367.5" ></text>
</g>
<g >
<title>xcb_get_setup&lt;000000000000e080&gt; (1 samples, 1.02%)</title><rect x="1178.0" y="309" width="12.0" height="15.0" fill="rgb(224,217,26)" rx="2" ry="2" />
<text  x="1180.96" y="319.5" ></text>
</g>
<g >
<title>glLabelObjectEXT (1 samples, 1.02%)</title><rect x="1141.8" y="309" width="12.1" height="15.0" fill="rgb(244,64,28)" rx="2" ry="2" />
<text  x="1144.84" y="319.5" ></text>
</g>
<g >
<title>_dl_catch_exception@@GLIBC_PRIVATE&lt;000000000014fdc0&gt; (1 samples, 1.02%)</title><rect x="106.3" y="181" width="12.1" height="15.0" fill="rgb(208,164,9)" rx="2" ry="2" />
<text  x="109.33" y="191.5" ></text>
</g>
<g >
<title>nouveau_object_new&lt;0000000000003380&gt; (1 samples, 1.02%)</title><rect x="82.2" y="181" width="12.1" height="15.0" fill="rgb(221,225,49)" rx="2" ry="2" />
<text  x="85.24" y="191.5" ></text>
</g>
<g >
<title>SDL_DYNAPI_entry (4 samples, 4.08%)</title><rect x="34.1" y="373" width="48.1" height="15.0" fill="rgb(206,114,51)" rx="2" ry="2" />
<text  x="37.08" y="383.5" >SDL_..</text>
</g>
<g >
<title>ioctl@@GLIBC_2.2.5&lt;00000000000fcbd0&gt; (1 samples, 1.02%)</title><rect x="130.4" y="69" width="12.0" height="15.0" fill="rgb(232,213,15)" rx="2" ry="2" />
<text  x="133.41" y="79.5" ></text>
</g>
<g >
<title>pthread_mutexattr_settype@GLIBC_2.2.5 (1 samples, 1.02%)</title><rect x="22.0" y="181" width="12.1" height="15.0" fill="rgb(240,29,14)" rx="2" ry="2" />
<text  x="25.04" y="191.5" ></text>
</g>
<g >
<title>dlopen@@GLIBC_2.34 (1 samples, 1.02%)</title><rect x="106.3" y="229" width="12.1" height="15.0" fill="rgb(215,181,29)" rx="2" ry="2" />
<text  x="109.33" y="239.5" ></text>
</g>
<g >
<title>_dl_rtld_di_serinfo@@GLIBC_PRIVATE&lt;0000000000008e00&gt; (1 samples, 1.02%)</title><rect x="106.3" y="37" width="12.1" height="15.0" fill="rgb(250,115,47)" rx="2" ry="2" />
<text  x="109.33" y="47.5" ></text>
</g>
<g >
<title>all (98 samples, 100%)</title><rect x="10.0" y="517" width="1180.0" height="15.0" fill="rgb(245,26,24)" rx="2" ry="2" />
<text  x="13.00" y="527.5" ></text>
</g>
<g >
<title>SDL_DYNAPI_entry (86 samples, 87.76%)</title><rect x="154.5" y="421" width="1035.5" height="15.0" fill="rgb(209,218,47)" rx="2" ry="2" />
<text  x="157.49" y="431.5" >SDL_DYNAPI_entry</text>
</g>
<g >
<title>void std::deque&lt;std::pair&lt;int, int&gt;, std::allocator&lt;std::pair&lt;int, int&gt; &gt; &gt;::emplace_back&lt;std::pair&lt;int, int&gt; &gt;(std::pair&lt;int, int&gt;&amp;&amp;) (1 samples, 1.02%)</title><rect x="10.0" y="421" width="12.0" height="15.0" fill="rgb(228,57,30)" rx="2" ry="2" />
<text  x="13.00" y="431.5" ></text>
</g>
<g >
<title>mrand48_r@@GLIBC_2.2.5&lt;000000000003c510&gt; (1 samples, 1.02%)</title><rect x="70.2" y="309" width="12.0" height="15.0" fill="rgb(225,217,10)" rx="2" ry="2" />
<text  x="73.20" y="319.5" ></text>
</g>
<g >
<title>xcb_poll_for_special_event&lt;000000000000ef20&gt; (2 samples, 2.04%)</title><rect x="1153.9" y="309" width="24.1" height="15.0" fill="rgb(238,46,6)" rx="2" ry="2" />
<text  x="1156.88" y="319.5" >x..</text>
</g>
<g >
<title>0x00007f83e0da5e7c (2 samples, 2.04%)</title><rect x="34.1" y="309" width="24.1" height="15.0" fill="rgb(220,176,14)" rx="2" ry="2" />
<text  x="37.08" y="319.5" >0..</text>
</g>
<g >
<title>pthread_cond_signal@@GLIBC_2.3.2&lt;0000000000085500&gt; (1 samples, 1.02%)</title><rect x="1153.9" y="277" width="12.0" height="15.0" fill="rgb(246,106,44)" rx="2" ry="2" />
<text  x="1156.88" y="287.5" ></text>
</g>
<g >
<title>Game_Loop::update()&lt;0000000000079f40&gt; (86 samples, 87.76%)</title><rect x="154.5" y="437" width="1035.5" height="15.0" fill="rgb(240,90,53)" rx="2" ry="2" />
<text  x="157.49" y="447.5" >Game_Loop::update()&lt;0000000000079f40&gt;</text>
</g>
<g >
<title>SDL_DYNAPI_entry (1 samples, 1.02%)</title><rect x="70.2" y="261" width="12.0" height="15.0" fill="rgb(213,85,24)" rx="2" ry="2" />
<text  x="73.20" y="271.5" ></text>
</g>
<g >
<title>glLabelObjectEXT (1 samples, 1.02%)</title><rect x="106.3" y="261" width="12.1" height="15.0" fill="rgb(239,201,36)" rx="2" ry="2" />
<text  x="109.33" y="271.5" ></text>
</g>
<g >
<title>SDL_DYNAPI_entry (6 samples, 6.12%)</title><rect x="82.2" y="421" width="72.3" height="15.0" fill="rgb(226,0,33)" rx="2" ry="2" />
<text  x="85.24" y="431.5" >SDL_DYNA..</text>
</g>
<g >
<title>mrand48_r@@GLIBC_2.2.5&lt;000000000003c510&gt; (1 samples, 1.02%)</title><rect x="70.2" y="341" width="12.0" height="15.0" fill="rgb(234,44,8)" rx="2" ry="2" />
<text  x="73.20" y="351.5" ></text>
</g>
<g >
<title>glIsTextureEXT&lt;000000000001a370&gt; (83 samples, 84.69%)</title><rect x="190.6" y="389" width="999.4" height="15.0" fill="rgb(241,166,41)" rx="2" ry="2" />
<text  x="193.61" y="399.5" >glIsTextureEXT&lt;000000000001a370&gt;</text>
</g>
<g >
<title>nouveau_drm_screen_create (1 samples, 1.02%)</title><rect x="82.2" y="197" width="12.1" height="15.0" fill="rgb(249,11,37)" rx="2" ry="2" />
<text  x="85.24" y="207.5" ></text>
</g>
<g >
<title>__driDriverGetExtensions_d3d12&lt;00000000000a9570&gt; (1 samples, 1.02%)</title><rect x="142.4" y="373" width="12.1" height="15.0" fill="rgb(227,177,6)" rx="2" ry="2" />
<text  x="145.45" y="383.5" ></text>
</g>
<g >
<title>drmIoctl&lt;00000000000072f0&gt; (1 samples, 1.02%)</title><rect x="82.2" y="133" width="12.1" height="15.0" fill="rgb(232,199,50)" rx="2" ry="2" />
<text  x="85.24" y="143.5" ></text>
</g>
<g >
<title>MesaGLInteropGLXExportObject&lt;0000000000033310&gt; (4 samples, 4.08%)</title><rect x="82.2" y="309" width="48.2" height="15.0" fill="rgb(215,103,28)" rx="2" ry="2" />
<text  x="85.24" y="319.5" >Mesa..</text>
</g>
<g >
<title>__driDriverGetExtensions_d3d12&lt;00000000000a9570&gt; (1 samples, 1.02%)</title><rect x="130.4" y="261" width="12.0" height="15.0" fill="rgb(240,118,7)" rx="2" ry="2" />
<text  x="133.41" y="271.5" ></text>
</g>
<g >
<title>main&lt;00000000000796e0&gt; (97 samples, 98.98%)</title><rect x="22.0" y="453" width="1168.0" height="15.0" fill="rgb(254,78,20)" rx="2" ry="2" />
<text  x="25.04" y="463.5" >main&lt;00000000000796e0&gt;</text>
</g>
<g >
<title>_dl_catch_exception@@GLIBC_PRIVATE&lt;000000000014fdc0&gt; (1 samples, 1.02%)</title><rect x="106.3" y="133" width="12.1" height="15.0" fill="rgb(224,63,30)" rx="2" ry="2" />
<text  x="109.33" y="143.5" ></text>
</g>
<g >
<title>0x00007f83e0daa55f (2 samples, 2.04%)</title><rect x="34.1" y="325" width="24.1" height="15.0" fill="rgb(208,133,13)" rx="2" ry="2" />
<text  x="37.08" y="335.5" >0..</text>
</g>
<g >
<title>SDL_DYNAPI_entry (2 samples, 2.04%)</title><rect x="154.5" y="357" width="24.1" height="15.0" fill="rgb(235,155,11)" rx="2" ry="2" />
<text  x="157.49" y="367.5" >S..</text>
</g>
<g >
<title>__driDriverGetExtensions_d3d12&lt;00000000000a9570&gt; (1 samples, 1.02%)</title><rect x="130.4" y="277" width="12.0" height="15.0" fill="rgb(235,46,10)" rx="2" ry="2" />
<text  x="133.41" y="287.5" ></text>
</g>
<g >
<title>__driDriverGetExtensions_d3d12&lt;00000000000a9570&gt; (1 samples, 1.02%)</title><rect x="142.4" y="341" width="12.1" height="15.0" fill="rgb(250,58,47)" rx="2" ry="2" />
<text  x="145.45" y="351.5" ></text>
</g>
<g >
<title>pthread_mutex_lock@@GLIBC_2.2.5 (1 samples, 1.02%)</title><rect x="1141.8" y="293" width="12.1" height="15.0" fill="rgb(220,140,49)" rx="2" ry="2" />
<text  x="1144.84" y="303.5" ></text>
</g>
<g >
<title>_dl_find_dso_for_object@@GLIBC_PRIVATE&lt;000000000000b770&gt; (1 samples, 1.02%)</title><rect x="106.3" y="149" width="12.1" height="15.0" fill="rgb(228,4,47)" rx="2" ry="2" />
<text  x="109.33" y="159.5" ></text>
</g>
<g >
<title>nouveau_drm_screen_create (1 samples, 1.02%)</title><rect x="130.4" y="133" width="12.0" height="15.0" fill="rgb(249,167,32)" rx="2" ry="2" />
<text  x="133.41" y="143.5" ></text>
</g>
<g >
<title>__driDriverGetExtensions_d3d12&lt;00000000000a9570&gt; (1 samples, 1.02%)</title><rect x="82.2" y="277" width="12.1" height="15.0" fill="rgb(234,182,4)" rx="2" ry="2" />
<text  x="85.24" y="287.5" ></text>
</g>
<g >
<title>__gconv_open@@GLIBC_PRIVATE&lt;0000000000023950&gt; (1 samples, 1.02%)</title><rect x="22.0" y="213" width="12.1" height="15.0" fill="rgb(254,39,36)" rx="2" ry="2" />
<text  x="25.04" y="223.5" ></text>
</g>
<g >
<title>_start&lt;00000000000795e0&gt; (98 samples, 100.00%)</title><rect x="10.0" y="501" width="1180.0" height="15.0" fill="rgb(240,118,45)" rx="2" ry="2" />
<text  x="13.00" y="511.5" >_start&lt;00000000000795e0&gt;</text>
</g>
<g >
<title>0x00007f83e0d991e4 (1 samples, 1.02%)</title><rect x="58.2" y="341" width="12.0" height="15.0" fill="rgb(247,82,24)" rx="2" ry="2" />
<text  x="61.16" y="351.5" ></text>
</g>
<g >
<title>glIsTextureEXT&lt;000000000001a370&gt; (4 samples, 4.08%)</title><rect x="82.2" y="325" width="48.2" height="15.0" fill="rgb(237,190,6)" rx="2" ry="2" />
<text  x="85.24" y="335.5" >glIs..</text>
</g>
<g >
<title>__driDriverGetExtensions_d3d12&lt;00000000000a9570&gt; (1 samples, 1.02%)</title><rect x="142.4" y="309" width="12.1" height="15.0" fill="rgb(227,171,22)" rx="2" ry="2" />
<text  x="145.45" y="319.5" ></text>
</g>
<g >
<title>__driDriverGetExtensions_d3d12&lt;00000000000a9570&gt; (1 samples, 1.02%)</title><rect x="178.6" y="373" width="12.0" height="15.0" fill="rgb(229,225,3)" rx="2" ry="2" />
<text  x="181.57" y="383.5" ></text>
</g>
<g >
<title>0x00007f83e0dad3e3 (1 samples, 1.02%)</title><rect x="58.2" y="277" width="12.0" height="15.0" fill="rgb(248,126,31)" rx="2" ry="2" />
<text  x="61.16" y="287.5" ></text>
</g>
<g >
<title>drmCloseBufferHandle&lt;000000000000ad40&gt; (1 samples, 1.02%)</title><rect x="130.4" y="101" width="12.0" height="15.0" fill="rgb(252,113,2)" rx="2" ry="2" />
<text  x="133.41" y="111.5" ></text>
</g>
<g >
<title>glLabelObjectEXT (1 samples, 1.02%)</title><rect x="106.3" y="245" width="12.1" height="15.0" fill="rgb(252,32,23)" rx="2" ry="2" />
<text  x="109.33" y="255.5" ></text>
</g>
<g >
<title>glAreTexturesResidentEXT&lt;000000000003f600&gt; (83 samples, 84.69%)</title><rect x="190.6" y="373" width="999.4" height="15.0" fill="rgb(228,196,43)" rx="2" ry="2" />
<text  x="193.61" y="383.5" >glAreTexturesResidentEXT&lt;000000000003f600&gt;</text>
</g>
<g >
<title>pa_log_set_ident&lt;00000000000311f0&gt; (1 samples, 1.02%)</title><rect x="22.0" y="277" width="12.1" height="15.0" fill="rgb(222,99,23)" rx="2" ry="2" />
<text  x="25.04" y="287.5" ></text>
</g>
<g >
<title>glLabelObjectEXT (1 samples, 1.02%)</title><rect x="118.4" y="277" width="12.0" height="15.0" fill="rgb(222,93,48)" rx="2" ry="2" />
<text  x="121.37" y="287.5" ></text>
</g>
<g >
<title>__gconv_get_alias_db@@GLIBC_PRIVATE&lt;0000000000023ff0&gt; (1 samples, 1.02%)</title><rect x="22.0" y="149" width="12.1" height="15.0" fill="rgb(231,58,27)" rx="2" ry="2" />
<text  x="25.04" y="159.5" ></text>
</g>
<g >
<title>__driDriverGetExtensions_d3d12&lt;00000000000a9570&gt; (1 samples, 1.02%)</title><rect x="130.4" y="293" width="12.0" height="15.0" fill="rgb(234,92,0)" rx="2" ry="2" />
<text  x="133.41" y="303.5" ></text>
</g>
<g >
<title>__driDriverGetExtensions_d3d12&lt;00000000000a9570&gt; (1 samples, 1.02%)</title><rect x="130.4" y="245" width="12.0" height="15.0" fill="rgb(218,205,25)" rx="2" ry="2" />
<text  x="133.41" y="255.5" ></text>
</g>
<g >
<title>getdents64@@GLIBC_2.30&lt;00000000000ce300&gt; (1 samples, 1.02%)</title><rect x="70.2" y="213" width="12.0" height="15.0" fill="rgb(208,125,20)" rx="2" ry="2" />
<text  x="73.20" y="223.5" ></text>
</g>
<g >
<title>nouveau_drm_screen_create (79 samples, 80.61%)</title><rect x="190.6" y="325" width="951.2" height="15.0" fill="rgb(213,211,26)" rx="2" ry="2" />
<text  x="193.61" y="335.5" >nouveau_drm_screen_create</text>
</g>
<g >
<title>SDL_DYNAPI_entry (1 samples, 1.02%)</title><rect x="22.0" y="389" width="12.1" height="15.0" fill="rgb(247,133,1)" rx="2" ry="2" />
<text  x="25.04" y="399.5" ></text>
</g>
<g >
<title>glLabelObjectEXT (83 samples, 84.69%)</title><rect x="190.6" y="357" width="999.4" height="15.0" fill="rgb(249,19,45)" rx="2" ry="2" />
<text  x="193.61" y="367.5" >glLabelObjectEXT</text>
</g>
<g >
<title>readdir64 (1 samples, 1.02%)</title><rect x="70.2" y="229" width="12.0" height="15.0" fill="rgb(227,40,42)" rx="2" ry="2" />
<text  x="73.20" y="239.5" ></text>
</g>
<g >
<title>glLabelObjectEXT (1 samples, 1.02%)</title><rect x="118.4" y="245" width="12.0" height="15.0" fill="rgb(243,119,18)" rx="2" ry="2" />
<text  x="121.37" y="255.5" ></text>
</g>
<g >
<title>recvmsg@@GLIBC_2.2.5&lt;0000000000109c20&gt; (1 samples, 1.02%)</title><rect x="1165.9" y="277" width="12.1" height="15.0" fill="rgb(242,150,16)" rx="2" ry="2" />
<text  x="1168.92" y="287.5" ></text>
</g>
<g >
<title>writev@@GLIBC_2.2.5&lt;00000000000fccf0&gt; (1 samples, 1.02%)</title><rect x="1178.0" y="277" width="12.0" height="15.0" fill="rgb(227,24,36)" rx="2" ry="2" />
<text  x="1180.96" y="287.5" ></text>
</g>
<g >
<title>glAreTexturesResidentEXT&lt;000000000003f600&gt; (1 samples, 1.02%)</title><rect x="130.4" y="325" width="12.0" height="15.0" fill="rgb(248,97,10)" rx="2" ry="2" />
<text  x="133.41" y="335.5" ></text>
</g>
<g >
<title>drmCommandWriteRead&lt;000000000000a8c0&gt; (1 samples, 1.02%)</title><rect x="82.2" y="149" width="12.1" height="15.0" fill="rgb(227,47,3)" rx="2" ry="2" />
<text  x="85.24" y="159.5" ></text>
</g>
<g >
<title>xcb_flush&lt;000000000000e870&gt; (1 samples, 1.02%)</title><rect x="1178.0" y="341" width="12.0" height="15.0" fill="rgb(253,15,47)" rx="2" ry="2" />
<text  x="1180.96" y="351.5" ></text>
</g>
<g >
<title>__driDriverGetExtensions_d3d12&lt;00000000000a9570&gt; (1 samples, 1.02%)</title><rect x="82.2" y="261" width="12.1" height="15.0" fill="rgb(207,218,48)" rx="2" ry="2" />
<text  x="85.24" y="271.5" ></text>
</g>
<g >
<title>nouveau_drm_screen_create (1 samples, 1.02%)</title><rect x="130.4" y="149" width="12.0" height="15.0" fill="rgb(248,94,51)" rx="2" ry="2" />
<text  x="133.41" y="159.5" ></text>
</g>
<g >
<title>0x00007f83e0d99915 (1 samples, 1.02%)</title><rect x="58.2" y="261" width="12.0" height="15.0" fill="rgb(230,195,18)" rx="2" ry="2" />
<text  x="61.16" y="271.5" ></text>
</g>
<g >
<title>dlmopen@@GLIBC_2.34 (1 samples, 1.02%)</title><rect x="106.3" y="165" width="12.1" height="15.0" fill="rgb(243,86,27)" rx="2" ry="2" />
<text  x="109.33" y="175.5" ></text>
</g>
<g >
<title>mrand48_r@@GLIBC_2.2.5&lt;000000000003c510&gt; (1 samples, 1.02%)</title><rect x="70.2" y="325" width="12.0" height="15.0" fill="rgb(230,180,3)" rx="2" ry="2" />
<text  x="73.20" y="335.5" ></text>
</g>
<g >
<title>_dl_catch_error@@GLIBC_PRIVATE&lt;000000000014fec0&gt; (1 samples, 1.02%)</title><rect x="106.3" y="197" width="12.1" height="15.0" fill="rgb(223,206,15)" rx="2" ry="2" />
<text  x="109.33" y="207.5" ></text>
</g>
<g >
<title>0x00007f83e0d99632 (1 samples, 1.02%)</title><rect x="46.1" y="277" width="12.1" height="15.0" fill="rgb(208,147,49)" rx="2" ry="2" />
<text  x="49.12" y="287.5" ></text>
</g>
<g >
<title>glAreTexturesResidentEXT&lt;000000000003f600&gt; (4 samples, 4.08%)</title><rect x="82.2" y="293" width="48.2" height="15.0" fill="rgb(211,49,43)" rx="2" ry="2" />
<text  x="85.24" y="303.5" >glAr..</text>
</g>
<g >
<title>__driDriverGetExtensions_d3d12&lt;00000000000a9570&gt; (1 samples, 1.02%)</title><rect x="142.4" y="293" width="12.1" height="15.0" fill="rgb(206,62,31)" rx="2" ry="2" />
<text  x="145.45" y="303.5" ></text>
</g>
<g >
<title>__driDriverGetExtensions_d3d12&lt;00000000000a9570&gt; (1 samples, 1.02%)</title><rect x="130.4" y="197" width="12.0" height="15.0" fill="rgb(231,62,53)" rx="2" ry="2" />
<text  x="133.41" y="207.5" ></text>
</g>
<g >
<title>__driDriverGetExtensions_swrast&lt;00000000000a94b0&gt; (1 samples, 1.02%)</title><rect x="82.2" y="229" width="12.1" height="15.0" fill="rgb(219,146,1)" rx="2" ry="2" />
<text  x="85.24" y="239.5" ></text>
</g>
<g >
<title>glIsTextureEXT&lt;000000000001a370&gt; (2 samples, 2.04%)</title><rect x="94.3" y="277" width="24.1" height="15.0" fill="rgb(239,181,16)" rx="2" ry="2" />
<text  x="97.29" y="287.5" >g..</text>
</g>
<g >
<title>SDL_DYNAPI_entry (1 samples, 1.02%)</title><rect x="70.2" y="277" width="12.0" height="15.0" fill="rgb(251,74,4)" rx="2" ry="2" />
<text  x="73.20" y="287.5" ></text>
</g>
<g >
<title>0x00007f83e0da6c9d (1 samples, 1.02%)</title><rect x="58.2" y="293" width="12.0" height="15.0" fill="rgb(243,64,38)" rx="2" ry="2" />
<text  x="61.16" y="303.5" ></text>
</g>
<g >
<title>__driDriverGetExtensions_d3d12&lt;00000000000a9570&gt; (1 samples, 1.02%)</title><rect x="82.2" y="245" width="12.1" height="15.0" fill="rgb(225,16,9)" rx="2" ry="2" />
<text  x="85.24" y="255.5" ></text>
</g>
<g >
<title>SDL_DYNAPI_entry (86 samples, 87.76%)</title><rect x="154.5" y="405" width="1035.5" height="15.0" fill="rgb(229,53,0)" rx="2" ry="2" />
<text  x="157.49" y="415.5" >SDL_DYNAPI_entry</text>
</g>
<g >
<title>SDL_DYNAPI_entry (4 samples, 4.08%)</title><rect x="34.1" y="389" width="48.1" height="15.0" fill="rgb(207,134,46)" rx="2" ry="2" />
<text  x="37.08" y="399.5" >SDL_..</text>
</g>
<g >
<title>SDL_DYNAPI_entry (3 samples, 3.06%)</title><rect x="154.5" y="389" width="36.1" height="15.0" fill="rgb(234,116,13)" rx="2" ry="2" />
<text  x="157.49" y="399.5" >SDL..</text>
</g>
<g >
<title>xcb_get_setup&lt;000000000000e080&gt; (2 samples, 2.04%)</title><rect x="1153.9" y="293" width="24.1" height="15.0" fill="rgb(236,215,33)" rx="2" ry="2" />
<text  x="1156.88" y="303.5" >x..</text>
</g>
<g >
<title>__driDriverGetExtensions_d3d12&lt;00000000000a9570&gt; (1 samples, 1.02%)</title><rect x="142.4" y="357" width="12.1" height="15.0" fill="rgb(250,79,38)" rx="2" ry="2" />
<text  x="145.45" y="367.5" ></text>
</g>
<g >
<title>exit@@GLIBC_2.2.5&lt;000000000003b100&gt; (1 samples, 1.02%)</title><rect x="10.0" y="453" width="12.0" height="15.0" fill="rgb(205,192,2)" rx="2" ry="2" />
<text  x="13.00" y="463.5" ></text>
</g>
<g >
<title>0x00007f83e0da0e39 (1 samples, 1.02%)</title><rect x="46.1" y="261" width="12.1" height="15.0" fill="rgb(235,0,39)" rx="2" ry="2" />
<text  x="49.12" y="271.5" ></text>
</g>
<g >
<title>__driDriverGetExtensions_d3d12&lt;00000000000a9570&gt; (1 samples, 1.02%)</title><rect x="142.4" y="325" width="12.1" height="15.0" fill="rgb(209,194,27)" rx="2" ry="2" />
<text  x="145.45" y="335.5" ></text>
</g>
<g >
<title>SDL_DYNAPI_entry (6 samples, 6.12%)</title><rect x="82.2" y="405" width="72.3" height="15.0" fill="rgb(240,100,26)" rx="2" ry="2" />
<text  x="85.24" y="415.5" >SDL_DYNA..</text>
</g>
<g >
<title>__driDriverGetExtensions_d3d12&lt;00000000000a9570&gt; (79 samples, 80.61%)</title><rect x="190.6" y="341" width="951.2" height="15.0" fill="rgb(250,67,34)" rx="2" ry="2" />
<text  x="193.61" y="351.5" >__driDriverGetExtensions_d3d12&lt;00000000000a9570&gt;</text>
</g>
<g >
<title>glLabelObjectEXT (3 samples, 3.06%)</title><rect x="1141.8" y="341" width="36.2" height="15.0" fill="rgb(241,179,3)" rx="2" ry="2" />
<text  x="1144.84" y="351.5" >glL..</text>
</g>
<g >
<title>drmIoctl&lt;00000000000072f0&gt; (1 samples, 1.02%)</title><rect x="130.4" y="85" width="12.0" height="15.0" fill="rgb(222,192,51)" rx="2" ry="2" />
<text  x="133.41" y="95.5" ></text>
</g>
<g >
<title>mrand48_r@@GLIBC_2.2.5&lt;000000000003c510&gt; (1 samples, 1.02%)</title><rect x="70.2" y="293" width="12.0" height="15.0" fill="rgb(223,64,52)" rx="2" ry="2" />
<text  x="73.20" y="303.5" ></text>
</g>
<g >
<title>void std::deque&lt;std::pair&lt;int, int&gt;, std::allocator&lt;std::pair&lt;int, int&gt; &gt; &gt;::emplace_back&lt;std::pair&lt;int, int&gt; &gt;(std::pair&lt;int, int&gt;&amp;&amp;) (1 samples, 1.02%)</title><rect x="10.0" y="405" width="12.0" height="15.0" fill="rgb(220,143,38)" rx="2" ry="2" />
<text  x="13.00" y="415.5" ></text>
</g>
<g >
<title>_dl_mcount@@GLIBC_2.2.5&lt;000000000000dbe0&gt; (1 samples, 1.02%)</title><rect x="106.3" y="69" width="12.1" height="15.0" fill="rgb(243,152,3)" rx="2" ry="2" />
<text  x="109.33" y="79.5" ></text>
</g>
<g >
<title>erand48_r@@GLIBC_2.2.5&lt;000000000003ae30&gt; (1 samples, 1.02%)</title><rect x="10.0" y="437" width="12.0" height="15.0" fill="rgb(254,8,42)" rx="2" ry="2" />
<text  x="13.00" y="447.5" ></text>
</g>
<g >
<title>iconv_open@@GLIBC_2.2.5&lt;00000000000236c0&gt; (1 samples, 1.02%)</title><rect x="22.0" y="229" width="12.1" height="15.0" fill="rgb(227,70,11)" rx="2" ry="2" />
<text  x="25.04" y="239.5" ></text>
</g>
<g >
<title>__gconv_get_alias_db@@GLIBC_PRIVATE&lt;0000000000023ff0&gt; (1 samples, 1.02%)</title><rect x="22.0" y="165" width="12.1" height="15.0" fill="rgb(225,23,10)" rx="2" ry="2" />
<text  x="25.04" y="175.5" ></text>
</g>
<g >
<title>qsort_r@@GLIBC_2.8&lt;000000000003c850&gt; (1 samples, 1.02%)</title><rect x="70.2" y="357" width="12.0" height="15.0" fill="rgb(238,108,23)" rx="2" ry="2" />
<text  x="73.20" y="367.5" ></text>
</g>
<g >
<title>openat64 (1 samples, 1.02%)</title><rect x="58.2" y="229" width="12.0" height="15.0" fill="rgb(227,140,16)" rx="2" ry="2" />
<text  x="61.16" y="239.5" ></text>
</g>
<g >
<title>_dl_find_dso_for_object@@GLIBC_PRIVATE&lt;000000000000b770&gt; (1 samples, 1.02%)</title><rect x="106.3" y="85" width="12.1" height="15.0" fill="rgb(231,200,9)" rx="2" ry="2" />
<text  x="109.33" y="95.5" ></text>
</g>
<g >
<title>SDL_DYNAPI_entry (5 samples, 5.10%)</title><rect x="82.2" y="357" width="60.2" height="15.0" fill="rgb(250,121,34)" rx="2" ry="2" />
<text  x="85.24" y="367.5" >SDL_DY..</text>
</g>
<g >
<title>_dl_rtld_di_serinfo@@GLIBC_PRIVATE&lt;0000000000008e00&gt; (1 samples, 1.02%)</title><rect x="106.3" y="53" width="12.1" height="15.0" fill="rgb(253,47,17)" rx="2" ry="2" />
<text  x="109.33" y="63.5" ></text>
</g>
<g >
<title>0x00007f83e0d93fd7 (2 samples, 2.04%)</title><rect x="34.1" y="357" width="24.1" height="15.0" fill="rgb(241,137,32)" rx="2" ry="2" />
<text  x="37.08" y="367.5" >0..</text>
</g>
<g >
<title>Game_Loop::Game_Loop() (11 samples, 11.22%)</title><rect x="22.0" y="437" width="132.5" height="15.0" fill="rgb(208,180,20)" rx="2" ry="2" />
<text  x="25.04" y="447.5" >Game_Loop::Game_..</text>
</g>
<g >
<title>__driDriverGetExtensions_d3d12&lt;00000000000a9570&gt; (1 samples, 1.02%)</title><rect x="130.4" y="229" width="12.0" height="15.0" fill="rgb(247,188,47)" rx="2" ry="2" />
<text  x="133.41" y="239.5" ></text>
</g>
<g >
<title>0x00007f83e0d92bda (1 samples, 1.02%)</title><rect x="58.2" y="309" width="12.0" height="15.0" fill="rgb(251,29,30)" rx="2" ry="2" />
<text  x="61.16" y="319.5" ></text>
</g>
<g >
<title>__driDriverGetExtensions_d3d12&lt;00000000000a9570&gt; (1 samples, 1.02%)</title><rect x="130.4" y="309" width="12.0" height="15.0" fill="rgb(230,203,41)" rx="2" ry="2" />
<text  x="133.41" y="319.5" ></text>
</g>
<g >
<title>glIsTextureEXT&lt;000000000001a370&gt; (1 samples, 1.02%)</title><rect x="130.4" y="341" width="12.0" height="15.0" fill="rgb(241,189,8)" rx="2" ry="2" />
<text  x="133.41" y="351.5" ></text>
</g>
<g >
<title>XML_SetBillionLaughsAttackProtectionActivationThreshold (1 samples, 1.02%)</title><rect x="118.4" y="213" width="12.0" height="15.0" fill="rgb(233,179,24)" rx="2" ry="2" />
<text  x="121.37" y="223.5" ></text>
</g>
<g >
<title>SDL_DYNAPI_entry (1 samples, 1.02%)</title><rect x="22.0" y="373" width="12.1" height="15.0" fill="rgb(251,47,34)" rx="2" ry="2" />
<text  x="25.04" y="383.5" ></text>
</g>
<g >
<title>nouveau_drm_screen_create (1 samples, 1.02%)</title><rect x="82.2" y="213" width="12.1" height="15.0" fill="rgb(211,28,8)" rx="2" ry="2" />
<text  x="85.24" y="223.5" ></text>
</g>
<g >
<title>0x00007f83e0da5780 (1 samples, 1.02%)</title><rect x="34.1" y="293" width="12.0" height="15.0" fill="rgb(224,129,48)" rx="2" ry="2" />
<text  x="37.08" y="303.5" ></text>
</g>
<g >
<title>pa_config_parse&lt;00000000000235e0&gt; (1 samples, 1.02%)</title><rect x="22.0" y="325" width="12.1" height="15.0" fill="rgb(239,222,30)" rx="2" ry="2" />
<text  x="25.04" y="335.5" ></text>
</g>
<g >
<title>xcb_get_setup&lt;000000000000e080&gt; (1 samples, 1.02%)</title><rect x="1178.0" y="293" width="12.0" height="15.0" fill="rgb(252,61,18)" rx="2" ry="2" />
<text  x="1180.96" y="303.5" ></text>
</g>
<g >
<title>poll (1 samples, 1.02%)</title><rect x="166.5" y="341" width="12.1" height="15.0" fill="rgb(253,9,38)" rx="2" ry="2" />
<text  x="169.53" y="351.5" ></text>
</g>
<g >
<title>__driDriverGetExtensions_d3d12&lt;00000000000a9570&gt; (1 samples, 1.02%)</title><rect x="178.6" y="357" width="12.0" height="15.0" fill="rgb(232,99,7)" rx="2" ry="2" />
<text  x="181.57" y="367.5" ></text>
</g>
<g >
<title>__driDriverGetExtensions_d3d12&lt;00000000000a9570&gt; (1 samples, 1.02%)</title><rect x="142.4" y="261" width="12.1" height="15.0" fill="rgb(248,135,7)" rx="2" ry="2" />
<text  x="145.45" y="271.5" ></text>
</g>
<g >
<title>pa_log_set_ident&lt;00000000000311f0&gt; (1 samples, 1.02%)</title><rect x="22.0" y="261" width="12.1" height="15.0" fill="rgb(247,60,7)" rx="2" ry="2" />
<text  x="25.04" y="271.5" ></text>
</g>
<g >
<title>glLabelObjectEXT (1 samples, 1.02%)</title><rect x="118.4" y="261" width="12.0" height="15.0" fill="rgb(243,61,4)" rx="2" ry="2" />
<text  x="121.37" y="271.5" ></text>
</g>
<g >
<title>__driDriverGetExtensions_d3d12&lt;00000000000a9570&gt; (1 samples, 1.02%)</title><rect x="142.4" y="277" width="12.1" height="15.0" fill="rgb(217,220,35)" rx="2" ry="2" />
<text  x="145.45" y="287.5" ></text>
</g>
<g >
<title>0x00007f83e0d92fb6 (1 samples, 1.02%)</title><rect x="58.2" y="325" width="12.0" height="15.0" fill="rgb(224,179,43)" rx="2" ry="2" />
<text  x="61.16" y="335.5" ></text>
</g>
<g >
<title>nouveau_object_mthd&lt;0000000000002f90&gt; (1 samples, 1.02%)</title><rect x="82.2" y="165" width="12.1" height="15.0" fill="rgb(238,26,8)" rx="2" ry="2" />
<text  x="85.24" y="175.5" ></text>
</g>
<g >
<title>0x00007f83e0d9f1a2 (1 samples, 1.02%)</title><rect x="46.1" y="229" width="12.1" height="15.0" fill="rgb(236,101,42)" rx="2" ry="2" />
<text  x="49.12" y="239.5" ></text>
</g>
<g >
<title>SDL_DYNAPI_entry (2 samples, 2.04%)</title><rect x="154.5" y="373" width="24.1" height="15.0" fill="rgb(240,153,15)" rx="2" ry="2" />
<text  x="157.49" y="383.5" >S..</text>
</g>
<g >
<title>0x00007f83e0da5903 (1 samples, 1.02%)</title><rect x="46.1" y="293" width="12.1" height="15.0" fill="rgb(208,172,16)" rx="2" ry="2" />
<text  x="49.12" y="303.5" ></text>
</g>
<g >
<title>XML_ParseBuffer&lt;0000000000010870&gt; (1 samples, 1.02%)</title><rect x="118.4" y="229" width="12.0" height="15.0" fill="rgb(230,76,14)" rx="2" ry="2" />
<text  x="121.37" y="239.5" ></text>
</g>
<g >
<title>SDL_DYNAPI_entry (5 samples, 5.10%)</title><rect x="82.2" y="373" width="60.2" height="15.0" fill="rgb(221,145,30)" rx="2" ry="2" />
<text  x="85.24" y="383.5" >SDL_DY..</text>
</g>
<g >
<title>ioctl@@GLIBC_2.2.5&lt;00000000000fcbd0&gt; (1 samples, 1.02%)</title><rect x="82.2" y="117" width="12.1" height="15.0" fill="rgb(244,127,9)" rx="2" ry="2" />
<text  x="85.24" y="127.5" ></text>
</g>
<g >
<title>SDL_CreateThread&lt;0000000000042220&gt; (1 samples, 1.02%)</title><rect x="22.0" y="405" width="12.1" height="15.0" fill="rgb(223,175,3)" rx="2" ry="2" />
<text  x="25.04" y="415.5" ></text>
</g>
<g >
<title>pa_log_levelv_meta&lt;0000000000031420&gt; (1 samples, 1.02%)</title><rect x="22.0" y="293" width="12.1" height="15.0" fill="rgb(252,145,41)" rx="2" ry="2" />
<text  x="25.04" y="303.5" ></text>
</g>
<g >
<title>scandirat64@@GLIBC_2.15 (1 samples, 1.02%)</title><rect x="70.2" y="245" width="12.0" height="15.0" fill="rgb(254,16,50)" rx="2" ry="2" />
<text  x="73.20" y="255.5" ></text>
</g>
<g >
<title>nouveau_drm_screen_create (79 samples, 80.61%)</title><rect x="190.6" y="309" width="951.2" height="15.0" fill="rgb(236,116,50)" rx="2" ry="2" />
<text  x="193.61" y="319.5" >nouveau_drm_screen_create</text>
</g>
<g >
<title>__driDriverGetExtensions_d3d12&lt;00000000000a9570&gt; (1 samples, 1.02%)</title><rect x="130.4" y="213" width="12.0" height="15.0" fill="rgb(242,6,34)" rx="2" ry="2" />
<text  x="133.41" y="223.5" ></text>
</g>
<g >
<title>SDL_DYNAPI_entry (1 samples, 1.02%)</title><rect x="58.2" y="357" width="12.0" height="15.0" fill="rgb(235,48,21)" rx="2" ry="2" />
<text  x="61.16" y="367.5" ></text>
</g>
<g >
<title>_dl_rtld_di_serinfo@@GLIBC_PRIVATE&lt;0000000000008e00&gt; (1 samples, 1.02%)</title><rect x="106.3" y="117" width="12.1" height="15.0" fill="rgb(241,122,9)" rx="2" ry="2" />
<text  x="109.33" y="127.5" ></text>
</g>
<g >
<title>pa_log_level_meta&lt;0000000000031f90&gt; (1 samples, 1.02%)</title><rect x="22.0" y="309" width="12.1" height="15.0" fill="rgb(229,131,30)" rx="2" ry="2" />
<text  x="25.04" y="319.5" ></text>
</g>
<g >
<title>nouveau_drm_screen_create (1 samples, 1.02%)</title><rect x="130.4" y="165" width="12.0" height="15.0" fill="rgb(217,223,23)" rx="2" ry="2" />
<text  x="133.41" y="175.5" ></text>
</g>
<g >
<title>SDL_DYNAPI_entry (4 samples, 4.08%)</title><rect x="82.2" y="341" width="48.2" height="15.0" fill="rgb(217,145,21)" rx="2" ry="2" />
<text  x="85.24" y="351.5" >SDL_..</text>
</g>
<g >
<title>__gconv_get_alias_db@@GLIBC_PRIVATE&lt;0000000000023ff0&gt; (1 samples, 1.02%)</title><rect x="22.0" y="197" width="12.1" height="15.0" fill="rgb(211,10,38)" rx="2" ry="2" />
<text  x="25.04" y="207.5" ></text>
</g>
<g >
<title>0x00007f83e0dab65b (1 samples, 1.02%)</title><rect x="46.1" y="245" width="12.1" height="15.0" fill="rgb(231,65,31)" rx="2" ry="2" />
<text  x="49.12" y="255.5" ></text>
</g>
<g >
<title>_dl_catch_exception@@GLIBC_PRIVATE&lt;000000000014fdc0&gt; (1 samples, 1.02%)</title><rect x="106.3" y="101" width="12.1" height="15.0" fill="rgb(221,118,44)" rx="2" ry="2" />
<text  x="109.33" y="111.5" ></text>
</g>
<g >
<title>pa_client_conf_load&lt;0000000000023f30&gt; (1 samples, 1.02%)</title><rect x="22.0" y="341" width="12.1" height="15.0" fill="rgb(227,144,30)" rx="2" ry="2" />
<text  x="25.04" y="351.5" ></text>
</g>
<g >
<title>__libc_start_main@GLIBC_2.2.5 (98 samples, 100.00%)</title><rect x="10.0" y="485" width="1180.0" height="15.0" fill="rgb(239,229,20)" rx="2" ry="2" />
<text  x="13.00" y="495.5" >__libc_start_main@GLIBC_2.2.5</text>
</g>
<g >
<title>pa_xrealloc@@PULSE_0&lt;0000000000036770&gt; (1 samples, 1.02%)</title><rect x="22.0" y="245" width="12.1" height="15.0" fill="rgb(239,118,33)" rx="2" ry="2" />
<text  x="25.04" y="255.5" ></text>
</g>
</g>
</svg>
